<svg xmlns="http://www.w3.org/2000/svg" xmlns:xlink="http://www.w3.org/1999/xlink" viewBox="0 0 812.56 476.13"><defs><style>.cls-1{fill:none;}.cls-2{isolation:isolate;}.cls-3{clip-path:url(#clip-path);}.cls-4{fill:#dcdcdc;}.cls-5{fill:#767676;}.cls-10,.cls-6{fill:#515151;}.cls-7{fill:#fefefe;}.cls-10,.cls-8{opacity:0.5;}.cls-9{fill:#565655;}.cls-11,.cls-17{fill:#aad2e4;}.cls-12,.cls-22{fill:#ce9f09;}.cls-13{fill:#fffffe;}.cls-14{fill:#d9effb;}.cls-15{fill:#fac400;}.cls-16{fill:#353535;}.cls-17{opacity:0.85;}.cls-17,.cls-21,.cls-22{mix-blend-mode:multiply;}.cls-18{fill:#fff;}.cls-19,.cls-21{fill:#568c9b;}.cls-20{fill:#cce1e9;}.cls-21{opacity:0.22;}.cls-22{opacity:0.21;}.cls-23{fill:#ffd85a;}.cls-24{fill:#7eb5ca;}</style><clipPath id="clip-path" transform="translate(0 -26.14)"><rect class="cls-1" x="26.7" width="750" height="500"/></clipPath></defs><title>bg</title><g class="cls-2"><g id="Layer_2" data-name="Layer 2"><g id="OBJECTS"><g class="cls-3"><polygon class="cls-4" points="414.82 158.62 414.82 106.7 433.97 106.7 433.97 56.67 447.93 56.67 447.93 142.63 457.91 142.63 457.91 101.49 471.88 101.49 471.88 24.92 538.72 24.92 538.72 127.85 547.98 127.85 547.98 84.55 572.64 84.55 572.64 319.42 409.02 319.42 414.82 158.62"/><polygon class="cls-4" points="95.2 345.02 109.86 330.37 109.86 67.91 116.84 67.91 116.84 46.76 134.44 46.76 134.44 0 136.68 0 136.68 46.76 153.32 46.76 153.32 67.88 160.36 67.88 160.36 142.5 169.5 142.5 169.5 105.89 179.22 105.89 179.22 38.69 237.96 15.92 237.96 108.27 263.64 108.27 263.64 51.73 309.65 51.73 309.65 60.78 317.4 60.78 317.4 66.03 309.65 66.03 309.65 82.33 317.4 82.33 317.4 89.16 309.65 89.16 309.65 133.54 317.4 133.54 317.4 139.09 309.65 139.09 309.65 158.72 326.92 158.72 326.92 129.03 341.3 129.03 341.3 93 347.48 93 347.48 143.57 353.24 143.57 353.24 71.72 356.11 71.72 356.11 68.87 365.14 68.87 365.08 54.06 367.96 54.06 367.91 68.87 376.3 68.87 376.3 71.72 378.85 71.72 378.85 178.35 378.85 345.02 95.2 345.02"/><polygon class="cls-4" points="115.91 102 113.9 102 113.9 158.54 88.22 158.54 88.22 66.19 29.48 88.96 29.48 156.16 19.77 156.16 19.77 308.87 15.41 308.87 15.41 327.17 115.91 327.17 115.91 102"/><polygon class="cls-5" points="775.92 153.69 767.05 136.33 754.49 136.33 754.49 108.99 743.41 108.99 737.87 117.49 737.87 135.96 732.33 135.96 732.33 141.5 729 141.5 729 188.42 717.92 188.42 717.92 98.64 704.62 98.64 704.62 185.46 692.8 185.46 692.8 152.21 672.85 152.21 672.85 162.56 666.94 162.56 666.94 166.62 659.38 183.8 659.38 141.87 612.63 125.24 612.63 135.22 604.87 135.22 604.87 146.3 594.16 146.3 594.16 162.93 547.98 162.93 547.98 119.33 540.22 119.33 540.22 98.64 522.49 98.64 522.49 185.09 504.76 185.09 504.76 171.79 497.74 171.79 497.74 130.79 492.94 130.79 492.94 118.22 485.92 118.22 485.92 90.15 482.59 90.15 482.59 118.22 473.36 118.22 473.36 130.42 465.97 130.42 465.97 170.31 457.47 170.31 457.47 186.2 437.15 186.2 437.15 152.21 423.3 138.36 401.04 138.36 400.58 138.36 400.58 129.31 367.33 129.31 367.33 149.86 364.98 152.21 364.98 176.59 361.79 176.59 361.79 186.2 344.66 186.2 344.66 170.31 336.16 170.31 336.16 130.42 328.77 130.42 328.77 118.22 319.54 118.22 319.54 90.15 316.21 90.15 316.21 118.22 309.19 118.22 309.19 130.79 304.39 130.79 304.39 171.79 297.37 171.79 297.37 185.09 279.64 185.09 279.64 98.64 261.91 98.64 261.91 119.33 254.15 119.33 254.15 162.93 207.97 162.93 207.97 146.3 197.26 146.3 197.26 135.22 189.5 135.22 189.5 125.24 142.75 141.87 142.75 183.8 135.19 166.62 135.19 162.56 129.28 162.56 129.28 152.21 109.33 152.21 109.33 185.46 97.51 185.46 97.51 98.64 84.21 98.64 84.21 188.42 73.13 188.42 73.13 141.5 69.81 141.5 69.81 135.96 64.26 135.96 64.26 117.49 58.72 108.99 47.64 108.99 47.64 136.33 35.08 136.33 26.21 153.69 9.54 153.69 9.54 476.13 792.6 476.13 792.6 153.69 775.92 153.69"/><polygon class="cls-6" points="0 268.26 31.92 268.26 31.92 176.42 60.85 176.42 60.85 127.93 84.21 127.93 84.21 203.42 95.2 203.42 95.2 244.32 130.19 244.32 130.19 268.26 167.6 268.26 167.6 252.86 191.57 252.86 191.57 268.26 220.7 268.26 220.7 254.96 226.9 248.75 226.9 239 239.76 239 239.76 296.86 255.06 296.86 255.06 262.28 278.64 262.28 278.64 272.25 288.65 272.25 288.65 262.28 305.94 262.28 305.94 283.89 322.13 283.89 334.99 296.75 357.48 296.75 357.48 264.27 388.88 264.27 397.46 255.7 410.69 255.7 410.69 301.19 420 301.19 420 241 435.63 241 435.63 258.95 447.6 258.95 447.6 299.52 459.9 299.52 459.9 203.75 476.86 203.75 476.86 152.6 525.08 152.6 525.08 354.72 0 354.72 0 268.26"/><polygon class="cls-6" points="812.56 262.28 800.92 262.28 800.92 272.25 790.92 272.25 790.92 262.28 767.34 262.28 767.34 296.86 752.04 296.86 752.04 239 739.18 239 739.18 248.75 732.98 254.96 732.98 268.26 703.85 268.26 703.85 252.86 679.88 252.86 679.88 268.26 642.47 268.26 642.47 244.32 607.48 244.32 607.48 203.42 596.49 203.42 596.49 127.93 573.13 127.93 573.13 176.42 544.2 176.42 544.2 268.26 512.28 268.26 512.28 354.72 812.56 354.72 812.56 262.28"/><rect class="cls-7" x="196.31" y="274.71" width="5.76" height="5.76"/><rect class="cls-7" x="205.29" y="274.71" width="5.76" height="5.76"/><rect class="cls-7" x="196.31" y="284.08" width="5.76" height="5.76"/><rect class="cls-7" x="205.29" y="284.08" width="5.76" height="5.76"/><rect class="cls-7" x="217.07" y="274.71" width="5.76" height="5.76"/><rect class="cls-7" x="226.05" y="274.71" width="5.76" height="5.76"/><rect class="cls-7" x="217.07" y="284.08" width="5.76" height="5.76"/><rect class="cls-7" x="226.05" y="284.08" width="5.76" height="5.76"/><g class="cls-8"><rect class="cls-7" x="11.92" y="160.28" width="3.59" height="3.59"/><rect class="cls-7" x="17.52" y="160.28" width="3.59" height="3.59"/><rect class="cls-7" x="11.92" y="166.13" width="3.59" height="3.59"/><rect class="cls-7" x="17.52" y="166.13" width="3.59" height="3.59"/></g><g class="cls-8"><rect class="cls-7" x="11.92" y="176.24" width="3.59" height="3.59"/><rect class="cls-7" x="17.52" y="176.24" width="3.59" height="3.59"/><rect class="cls-7" x="11.92" y="182.09" width="3.59" height="3.59"/><rect class="cls-7" x="17.52" y="182.09" width="3.59" height="3.59"/></g><g class="cls-8"><rect class="cls-7" x="211.31" y="207.51" width="3.59" height="3.59"/><rect class="cls-7" x="216.91" y="207.51" width="3.59" height="3.59"/><rect class="cls-7" x="211.31" y="213.35" width="3.59" height="3.59"/><rect class="cls-7" x="216.91" y="213.35" width="3.59" height="3.59"/></g><g class="cls-8"><rect class="cls-7" x="228.24" y="207.51" width="3.59" height="3.59"/><rect class="cls-7" x="233.84" y="207.51" width="3.59" height="3.59"/><rect class="cls-7" x="228.24" y="213.35" width="3.59" height="3.59"/><rect class="cls-7" x="233.84" y="213.35" width="3.59" height="3.59"/></g><g class="cls-8"><rect class="cls-7" x="470.35" y="139.86" width="3.59" height="3.59"/><rect class="cls-7" x="475.95" y="139.86" width="3.59" height="3.59"/><rect class="cls-7" x="470.35" y="145.71" width="3.59" height="3.59"/><rect class="cls-7" x="475.95" y="145.71" width="3.59" height="3.59"/></g><g class="cls-8"><rect class="cls-7" x="417.81" y="185.65" width="3.59" height="3.59"/><rect class="cls-7" x="423.41" y="185.65" width="3.59" height="3.59"/><rect class="cls-7" x="417.81" y="191.49" width="3.59" height="3.59"/><rect class="cls-7" x="423.41" y="191.49" width="3.59" height="3.59"/></g><g class="cls-8"><rect class="cls-7" x="401.87" y="201.59" width="3.59" height="3.59"/><rect class="cls-7" x="407.47" y="201.59" width="3.59" height="3.59"/><rect class="cls-7" x="401.87" y="207.43" width="3.59" height="3.59"/><rect class="cls-7" x="407.47" y="207.43" width="3.59" height="3.59"/></g><g class="cls-8"><rect class="cls-7" x="401.87" y="219.76" width="3.59" height="3.59"/><rect class="cls-7" x="407.47" y="219.76" width="3.59" height="3.59"/><rect class="cls-7" x="401.87" y="225.6" width="3.59" height="3.59"/><rect class="cls-7" x="407.47" y="225.6" width="3.59" height="3.59"/></g><g class="cls-8"><rect class="cls-7" x="731.76" y="194.01" width="3.59" height="3.59"/><rect class="cls-7" x="737.35" y="194.01" width="3.59" height="3.59"/><rect class="cls-7" x="731.76" y="199.85" width="3.59" height="3.59"/><rect class="cls-7" x="737.35" y="199.85" width="3.59" height="3.59"/></g><g class="cls-8"><rect class="cls-7" x="752.09" y="160.69" width="3.59" height="3.59"/><rect class="cls-7" x="757.69" y="160.69" width="3.59" height="3.59"/><rect class="cls-7" x="752.09" y="166.54" width="3.59" height="3.59"/><rect class="cls-7" x="757.69" y="166.54" width="3.59" height="3.59"/></g><g class="cls-8"><rect class="cls-7" x="715.82" y="209.95" width="3.59" height="3.59"/><rect class="cls-7" x="721.41" y="209.95" width="3.59" height="3.59"/><rect class="cls-7" x="715.82" y="215.79" width="3.59" height="3.59"/><rect class="cls-7" x="721.41" y="215.79" width="3.59" height="3.59"/></g><g class="cls-8"><rect class="cls-7" x="643.96" y="150.72" width="3.59" height="3.59"/><rect class="cls-7" x="649.56" y="150.72" width="3.59" height="3.59"/><rect class="cls-7" x="643.96" y="156.56" width="3.59" height="3.59"/><rect class="cls-7" x="649.56" y="156.56" width="3.59" height="3.59"/></g><g class="cls-8"><rect class="cls-7" x="37.52" y="142.21" width="3.59" height="3.59"/><rect class="cls-7" x="43.12" y="142.21" width="3.59" height="3.59"/><rect class="cls-7" x="37.52" y="148.06" width="3.59" height="3.59"/><rect class="cls-7" x="43.12" y="148.06" width="3.59" height="3.59"/></g><rect class="cls-7" x="133.73" y="277.59" width="3.46" height="3.46"/><rect class="cls-7" x="139.12" y="277.59" width="3.46" height="3.46"/><rect class="cls-7" x="133.73" y="283.22" width="3.46" height="3.46"/><rect class="cls-7" x="139.12" y="283.22" width="3.46" height="3.46"/><rect class="cls-7" x="36.35" y="185.68" width="5.76" height="5.76"/><rect class="cls-7" x="45.33" y="185.68" width="5.76" height="5.76"/><rect class="cls-7" x="54.31" y="185.68" width="5.76" height="5.76"/><rect class="cls-7" x="63.29" y="185.68" width="5.76" height="5.76"/><rect class="cls-7" x="36.35" y="195.05" width="5.76" height="5.76"/><rect class="cls-7" x="45.33" y="195.05" width="5.76" height="5.76"/><rect class="cls-7" x="54.31" y="195.05" width="5.76" height="5.76"/><rect class="cls-7" x="63.29" y="195.05" width="5.76" height="5.76"/><rect class="cls-7" x="36.35" y="212.23" width="5.76" height="5.76"/><rect class="cls-7" x="45.33" y="212.23" width="5.76" height="5.76"/><rect class="cls-7" x="54.31" y="212.23" width="5.76" height="5.76"/><rect class="cls-7" x="63.29" y="212.23" width="5.76" height="5.76"/><rect class="cls-7" x="36.35" y="221.6" width="5.76" height="5.76"/><rect class="cls-7" x="45.33" y="221.6" width="5.76" height="5.76"/><rect class="cls-7" x="54.31" y="221.6" width="5.76" height="5.76"/><rect class="cls-7" x="63.29" y="221.6" width="5.76" height="5.76"/><rect class="cls-7" x="76.86" y="212.23" width="5.76" height="5.76"/><rect class="cls-7" x="85.83" y="212.23" width="5.76" height="5.76"/><rect class="cls-7" x="76.86" y="221.6" width="5.76" height="5.76"/><rect class="cls-7" x="85.83" y="221.6" width="5.76" height="5.76"/><rect class="cls-7" x="76.86" y="238.77" width="5.76" height="5.76"/><rect class="cls-7" x="85.83" y="238.77" width="5.76" height="5.76"/><rect class="cls-7" x="76.86" y="248.14" width="5.76" height="5.76"/><rect class="cls-7" x="85.83" y="248.14" width="5.76" height="5.76"/><rect class="cls-7" x="15.41" y="282.85" width="5.76" height="5.76"/><rect class="cls-7" x="24.39" y="282.85" width="5.76" height="5.76"/><rect class="cls-7" x="15.41" y="292.22" width="5.76" height="5.76"/><rect class="cls-7" x="24.39" y="292.22" width="5.76" height="5.76"/><rect class="cls-7" x="365.13" y="270.02" width="5.76" height="5.76"/><rect class="cls-7" x="374.11" y="270.02" width="5.76" height="5.76"/><rect class="cls-7" x="365.13" y="279.39" width="5.76" height="5.76"/><rect class="cls-7" x="374.11" y="279.39" width="5.76" height="5.76"/><rect class="cls-7" x="384.2" y="270.02" width="5.76" height="5.76"/><rect class="cls-7" x="393.17" y="270.02" width="5.76" height="5.76"/><rect class="cls-7" x="384.2" y="279.39" width="5.76" height="5.76"/><rect class="cls-7" x="393.17" y="279.39" width="5.76" height="5.76"/><rect class="cls-7" x="365.13" y="290.42" width="5.76" height="5.76"/><rect class="cls-7" x="374.11" y="290.42" width="5.76" height="5.76"/><rect class="cls-7" x="365.13" y="299.79" width="5.76" height="5.76"/><rect class="cls-7" x="374.11" y="299.79" width="5.76" height="5.76"/><rect class="cls-7" x="471.99" y="219.79" width="5.76" height="5.76"/><rect class="cls-7" x="480.97" y="219.79" width="5.76" height="5.76"/><rect class="cls-7" x="471.99" y="229.16" width="5.76" height="5.76"/><rect class="cls-7" x="480.97" y="229.16" width="5.76" height="5.76"/><rect class="cls-7" x="494.79" y="190.37" width="5.76" height="5.76"/><rect class="cls-7" x="503.77" y="190.37" width="5.76" height="5.76"/><rect class="cls-7" x="494.79" y="199.74" width="5.76" height="5.76"/><rect class="cls-7" x="503.77" y="199.74" width="5.76" height="5.76"/><rect class="cls-7" x="494.79" y="251.02" width="5.76" height="5.76"/><rect class="cls-7" x="503.77" y="251.02" width="5.76" height="5.76"/><rect class="cls-7" x="494.79" y="260.39" width="5.76" height="5.76"/><rect class="cls-7" x="503.77" y="260.39" width="5.76" height="5.76"/><rect class="cls-7" x="494.79" y="277.59" width="5.76" height="5.76"/><rect class="cls-7" x="503.77" y="277.59" width="5.76" height="5.76"/><rect class="cls-7" x="494.79" y="286.96" width="5.76" height="5.76"/><rect class="cls-7" x="503.77" y="286.96" width="5.76" height="5.76"/><rect class="cls-7" x="36.35" y="238.77" width="5.76" height="5.76"/><rect class="cls-7" x="45.33" y="238.77" width="5.76" height="5.76"/><rect class="cls-7" x="54.31" y="238.77" width="5.76" height="5.76"/><rect class="cls-7" x="63.29" y="238.77" width="5.76" height="5.76"/><rect class="cls-7" x="36.35" y="248.14" width="5.76" height="5.76"/><rect class="cls-7" x="45.33" y="248.14" width="5.76" height="5.76"/><rect class="cls-7" x="54.31" y="248.14" width="5.76" height="5.76"/><rect class="cls-7" x="63.29" y="248.14" width="5.76" height="5.76"/><rect class="cls-7" x="704.22" y="299.44" width="5.76" height="5.76"/><rect class="cls-7" x="713.2" y="299.44" width="5.76" height="5.76"/><rect class="cls-7" x="722.18" y="299.44" width="5.76" height="5.76"/><rect class="cls-7" x="731.16" y="299.44" width="5.76" height="5.76"/><rect class="cls-7" x="704.22" y="308.81" width="5.76" height="5.76"/><rect class="cls-7" x="713.2" y="308.81" width="5.76" height="5.76"/><rect class="cls-7" x="722.18" y="308.81" width="5.76" height="5.76"/><rect class="cls-7" x="731.16" y="308.81" width="5.76" height="5.76"/><rect class="cls-7" x="683.28" y="282.85" width="5.76" height="5.76"/><rect class="cls-7" x="692.26" y="282.85" width="5.76" height="5.76"/><rect class="cls-7" x="683.28" y="292.22" width="5.76" height="5.76"/><rect class="cls-7" x="692.26" y="292.22" width="5.76" height="5.76"/><rect class="cls-7" x="556.51" y="219.69" width="5.76" height="5.76"/><rect class="cls-7" x="565.48" y="219.69" width="5.76" height="5.76"/><rect class="cls-7" x="574.46" y="219.69" width="5.76" height="5.76"/><rect class="cls-7" x="583.44" y="219.69" width="5.76" height="5.76"/><rect class="cls-7" x="556.51" y="229.06" width="5.76" height="5.76"/><rect class="cls-7" x="565.48" y="229.06" width="5.76" height="5.76"/><rect class="cls-7" x="574.46" y="229.06" width="5.76" height="5.76"/><rect class="cls-7" x="583.44" y="229.06" width="5.76" height="5.76"/><rect class="cls-7" x="557.39" y="197.91" width="5.76" height="5.76"/><rect class="cls-7" x="566.37" y="197.91" width="5.76" height="5.76"/><rect class="cls-7" x="557.39" y="207.28" width="5.76" height="5.76"/><rect class="cls-7" x="566.37" y="207.28" width="5.76" height="5.76"/><circle class="cls-7" cx="435.01" cy="260.46" r="3.84"/><circle class="cls-7" cx="438.68" cy="295.24" r="1.75" transform="translate(-87.02 212.08) rotate(-27.75)"/><path class="cls-7" d="M456.53,291.67a6.89,6.89,0,0,0-2.11-3.06,1.82,1.82,0,0,0,.58-.67,1.84,1.84,0,0,0-2.8-2.27,3.8,3.8,0,0,0-.48-1,3.83,3.83,0,0,0-6.44,4.14,6.9,6.9,0,1,0,9.55,10l.15.1a3.84,3.84,0,1,0,3.44-6.87A3.8,3.8,0,0,0,456.53,291.67Z" transform="translate(0 -26.14)"/><circle class="cls-7" cx="266.81" cy="167.14" r="7.31"/><circle class="cls-7" cx="465.21" cy="382.48" r="7.31"/><ellipse class="cls-7" cx="456.18" cy="346.18" rx="2.38" ry="1.61"/><circle class="cls-7" cx="289.74" cy="170.35" r="3.64"/><circle class="cls-7" cx="343.47" cy="247.8" r="1.82"/><path class="cls-7" d="M433.37,383.22s0-20.92-20.4-22.9a16.06,16.06,0,0,0-16.65-26,37.56,37.56,0,0,0-60.49-43.66c.12-1.74.2-3.5.2-5.27a77.38,77.38,0,0,0-91.42-76.14,48.78,48.78,0,0,0-81.23-52.38A80.57,80.57,0,1,0,3.59,176.61V383.22ZM385,346.83l.13-.09c0,.08,0,.17,0,.26Z" transform="translate(0 -26.14)"/><path class="cls-9" d="M352.92,235.78c-.23-1.91-.71-3.42-1.07-3.37-.18,0-.3.43-.35,1.07,0,.26,0,.55,0,.88-1.77,1.5-5.74,1.67-9,1.5a20.32,20.32,0,0,0-1.93-5.64c-.25-.48-.51-.93-.79-1.38,1.2-2.23,4.27-4,5.35-4.64.66.69,1.22,1.1,1.38,1s-.34-1.22-1.25-2.34-1.81-1.89-2-1.71,0,.39.2.82c.09.17.21.36.34.56-.53,1.67-3,3.39-5.21,4.6a20.19,20.19,0,0,0-5.12-4.67,21.91,21.91,0,0,1,3.9-7.18c1.17.51,2.07.71,2.2.47s-1.06-1.32-2.76-2.22-3.21-1.37-3.38-1c-.09.16.18.49.68.89.2.16.44.34.71.52.2,2.07-1.49,5-3.3,7.46a20.42,20.42,0,0,0-8.39-2.09,16.89,16.89,0,0,1-.32-5.89c.94-.14,1.6-.37,1.58-.58s-1.2-.41-2.64-.31-2.58.42-2.56.69.31.24.79.3l.66,0c.91,1.18,1,3.55.91,5.77a20.21,20.21,0,0,0-7.51,1.83,23.91,23.91,0,0,1-3-6.45c1.08-.67,1.77-1.29,1.64-1.54s-1.69.12-3.4,1-3,1.86-2.78,2.19c.08.16.51.13,1.12,0,.25-.07.53-.17.83-.29,1.62.91,2.94,3.43,3.91,6a20.21,20.21,0,0,0-6.42,5.86,24.34,24.34,0,0,1-5.5-4.14c.63-1.1.94-2,.71-2.14s-1.43.91-2.51,2.5-1.71,3-1.41,3.25c.15.1.51-.12,1-.57.18-.18.38-.4.59-.65,1.81,0,4.11,1.55,6.16,3.31a20.43,20.43,0,0,0-2.7,9,18,18,0,0,1-5.3-.41c0-1-.19-1.63-.4-1.64s-.54,1.15-.6,2.59.13,2.61.4,2.62.27-.28.38-.75c0-.19.08-.41.12-.65,1.19-.72,3.32-.66,5.37-.34a20.2,20.2,0,0,0,1.59,7.67,23.63,23.63,0,0,1-6.88,2.36c-.55-1.15-1.09-1.9-1.35-1.8s-.07,1.69.62,3.49,1.52,3.14,1.87,3c.17-.07.19-.49.08-1.12,0-.25-.11-.54-.2-.86,1.12-1.57,3.94-2.62,6.72-3.3a20.23,20.23,0,0,0,5.74,6.65,16.29,16.29,0,0,1-3.75,4.93c-.81-.51-1.45-.77-1.58-.6s.63,1.1,1.79,2,2.22,1.38,2.39,1.16-.08-.39-.4-.74c-.13-.14-.29-.3-.47-.46.09-1.6,1.77-3.64,3.45-5.29a20.43,20.43,0,0,0,6.58,2.63,21.52,21.52,0,0,1-2,8.11c-1.26-.2-2.18-.19-2.25.09s1.35,1,3.22,1.48,3.45.54,3.54.18c0-.18-.29-.43-.88-.7-.23-.11-.51-.22-.82-.32-.74-2.06.32-5.54,1.55-8.48a20.2,20.2,0,0,0,7.59-.76c1.79,1.86,2.45,5.54,2.63,6.81-.88.37-1.46.75-1.39,1s1.27.11,2.63-.35,2.4-1,2.32-1.3-.36-.16-.84-.1c-.19,0-.41.07-.65.12-1.46-1.15-2.19-4.37-2.54-6.92.47-.2.93-.41,1.38-.64a20.37,20.37,0,0,0,3.93-2.65c2.95,1.55,5.44,5.36,6.28,6.74-.88.92-1.4,1.69-1.21,1.9s1.61-.53,3-1.8,2.41-2.53,2.16-2.81-.52,0-1.08.32c-.22.13-.47.3-.74.49-2.29-.62-4.75-3.91-6.5-6.77a20.31,20.31,0,0,0,3.64-5.91c2.58-.71,6.35,1,7.56,1.62-.2.93-.21,1.63,0,1.69s.81-1,1.21-2.36.52-2.57.25-2.64-.34.21-.55.63c-.09.17-.18.38-.27.6-1.84.57-5.07-.78-7.38-2a20.35,20.35,0,0,0,.63-6.15c3-1.51,7.45-1.38,9-1.28.25,1.25.59,2.11.87,2.08S353.15,237.69,352.92,235.78Zm-44.5-5.14a1.07,1.07,0,1,1-.46,1.44A1.07,1.07,0,0,1,308.42,230.64ZM313.78,252c-1.2.62-3.53-1.53-5.22-4.8s-2.09-6.42-.89-7,3.53,1.53,5.22,4.8S315,251.4,313.78,252Zm.46-15.79c-1.3-1.43.45-5.13,3.9-8.26s7.3-4.51,8.6-3.07-.45,5.13-3.9,8.26S315.54,237.66,314.24,236.23Zm6.34,21.44a1.6,1.6,0,1,1,.69-2.16A1.6,1.6,0,0,1,320.58,257.67Zm5.68-6.28c-3.23.92-6.33,0-6.92-2.12s1.53-4.54,4.76-5.46,6.33,0,6.92,2.12S329.49,250.47,326.26,251.39ZM330.91,226a.75.75,0,1,1,1,.32A.75.75,0,0,1,330.91,226Zm1.47,8.68c-1.15-2.23-.69-4.75,1-5.64s4,.2,5.19,2.43.69,4.75-1,5.64S333.54,236.91,332.39,234.69ZM339,247.57c-.61,2.17-2.28,3.6-3.74,3.2s-2.15-2.5-1.55-4.67,2.28-3.6,3.74-3.2S339.64,245.4,339,247.57Z" transform="translate(0 -26.14)"/><path class="cls-5" d="M73.49,352.18c1.27-.62,2.21-1.33,2.09-1.57s-.37-.11-.83,0c-.18.05-.39.12-.62.2-1.47-.86-2.57-3.59-3.26-5.93a15,15,0,0,0,3.46-2.73c.27-.29.52-.59.77-.89,1.85.29,3.86,2,4.54,2.59-.32.63-.47,1.12-.34,1.2s.77-.54,1.33-1.44.87-1.73.7-1.83-.28.08-.52.34c-.1.11-.2.23-.31.37-1.3,0-3.1-1.28-4.48-2.5a14.9,14.9,0,0,0,2-4.71,16.17,16.17,0,0,1,6,1c-.07.94,0,1.62.21,1.65s.66-1.06.87-2.46.17-2.57-.1-2.61-.3.25-.46.69c-.06.18-.13.39-.19.62-1.39.64-3.84.18-6-.47a15.08,15.08,0,0,0-.59-6.35,12.47,12.47,0,0,1,4-1.66c.33.62.65,1,.79,1s0-.94-.43-1.91S81.19,323,81,323.1s-.09.28,0,.62c0,.14.08.3.13.47-.6.93-2.22,1.59-3.79,2a14.92,14.92,0,0,0-3.12-4.78A17.65,17.65,0,0,1,78,317.77c.73.59,1.33.91,1.48.76s-.5-1.15-1.53-2.12-2-1.6-2.21-1.4,0,.39.31.77c.11.16.25.33.41.51-.24,1.35-1.67,2.88-3.23,4.19a14.92,14.92,0,0,0-5.65-3,18,18,0,0,1,1.54-4.84c.92.17,1.61.17,1.66,0s-1-.77-2.35-1.14-2.54-.45-2.61-.19.21.32.64.53c.17.08.38.17.6.25.42,1.27-.07,3.24-.8,5.1a15.08,15.08,0,0,0-6.92.31,13.27,13.27,0,0,1-1-3.8c.65-.26,1.09-.53,1-.68s-.93-.1-1.95.22-1.79.73-1.73.92.26.12.62.08l.48-.08c.79.65,1.27,2.15,1.55,3.66a14.91,14.91,0,0,0-5,3A17.45,17.45,0,0,1,50,316.53c.67-.66,1.06-1.22.92-1.38s-1.2.37-2.28,1.28-1.81,1.83-1.64,2,.39,0,.8-.22c.17-.09.35-.21.55-.35,1.36.4,2.79,2.1,3.94,3.87a14.94,14.94,0,0,0-3.23,5.63A12,12,0,0,1,44.74,326c.16-.69.18-1.2,0-1.25s-.61.71-.93,1.73-.42,1.89-.23,1.95.25-.15.42-.46c.07-.12.14-.28.21-.44,1.14-.33,3,.34,4.53,1.11a15.08,15.08,0,0,0-.22,5.23,15.89,15.89,0,0,1-6.15.57c-.16-.93-.4-1.57-.61-1.55s-.38,1.19-.24,2.6S42,338,42.29,338s.23-.31.27-.78c0-.19,0-.41,0-.65,1.25-1,3.94-1.14,6.29-1a14.91,14.91,0,0,0,2.39,5.1c-.86,1.7-3.26,3.06-4.1,3.49-.47-.52-.88-.83-1-.74s.24.91.89,1.75,1.31,1.42,1.47,1.3,0-.29-.14-.61c-.06-.13-.15-.27-.24-.42.44-1.3,2.51-2.6,4.2-3.46.25.28.51.55.79.81a15,15,0,0,0,2.81,2.09c-.36,2.43-2.4,5.1-3.16,6-.85-.39-1.52-.56-1.62-.38s.76,1,2,1.68,2.35,1.06,2.48.82-.12-.37-.49-.67c-.15-.12-.32-.26-.52-.39-.13-1.74,1.56-4.27,3.13-6.18a15,15,0,0,0,5,1.09c1.12,1.62.85,4.67.72,5.66-.7.09-1.19.25-1.18.41s.88.32,1.94.27,1.91-.27,1.9-.47-.23-.18-.58-.23l-.48,0c-.85-1.14-.7-3.72-.43-5.63a15,15,0,0,0,4.44-1.06c1.77,1.69,2.79,4.85,3.11,6-.81.48-1.32.93-1.23,1.11S72.22,352.81,73.49,352.18Zm-7.3-32.26a.79.79,0,1,1-1.12,0A.79.79,0,0,1,66.19,319.92Zm-13.58,9c-.72-.68.2-2.84,2.06-4.81s4-3,4.68-2.34-.2,2.84-2.06,4.81S53.33,329.57,52.61,328.88Zm11.11-3.54c.68-1.26,3.68-.94,6.71.69s4.92,4,4.24,5.24-3.68.94-6.71-.69S63,326.6,63.72,325.34ZM50.33,335A1.18,1.18,0,1,1,52,335,1.18,1.18,0,0,1,50.33,335Zm5.76,2.42c-1.43-2-1.53-4.41-.22-5.34s3.53,0,5,2,1.53,4.41.22,5.34S57.53,339.45,56.09,337.43Zm18.82-3a.55.55,0,1,1,0,.78A.55.55,0,0,1,74.92,334.46Zm-5.69,3.15c1.27-1.35,3.14-1.65,4.18-.67s.85,2.86-.42,4.21-3.14,1.65-4.18.67S68,339,69.23,337.61Zm-7.35,7.78c-1.66.11-3.07-.71-3.14-1.82s1.21-2.11,2.88-2.22,3.07.71,3.14,1.82S63.54,345.28,61.88,345.39Z" transform="translate(0 -26.14)"/><path class="cls-5" d="M184.46,189.29c.62-.3,1.08-.65,1-.77s-.18-.05-.4,0l-.3.1c-.72-.42-1.25-1.75-1.59-2.89a7.32,7.32,0,0,0,1.69-1.33c.13-.14.26-.29.38-.43a5.18,5.18,0,0,1,2.22,1.27c-.16.31-.23.55-.17.59s.38-.26.65-.7.43-.84.34-.89-.14,0-.25.17l-.15.18a4.09,4.09,0,0,1-2.19-1.22,7.28,7.28,0,0,0,1-2.3,7.9,7.9,0,0,1,2.91.47c0,.46,0,.79.1.8s.32-.52.43-1.2.08-1.26-.05-1.28-.15.12-.22.34-.06.19-.09.3a4.83,4.83,0,0,1-2.93-.23,7.36,7.36,0,0,0-.29-3.1,6.09,6.09,0,0,1,2-.81c.16.3.32.5.39.47s0-.46-.21-.93-.45-.83-.54-.79,0,.13,0,.3,0,.15.06.23a3.46,3.46,0,0,1-1.85,1,7.29,7.29,0,0,0-1.52-2.34,8.62,8.62,0,0,1,1.83-1.79c.36.29.65.45.72.37s-.24-.56-.75-1-1-.78-1.08-.68,0,.19.15.38l.2.25a4.3,4.3,0,0,1-1.58,2,7.28,7.28,0,0,0-2.76-1.48,8.77,8.77,0,0,1,.75-2.36c.45.08.79.08.81,0s-.48-.38-1.15-.56-1.24-.22-1.27-.09.1.16.31.26l.29.12a4.2,4.2,0,0,1-.39,2.49,7.36,7.36,0,0,0-3.38.15,6.48,6.48,0,0,1-.49-1.85c.32-.13.53-.26.51-.33s-.46,0-1,.11-.87.36-.84.45.13.06.3,0l.23,0a3.22,3.22,0,0,1,.76,1.79,7.28,7.28,0,0,0-2.42,1.46,8.52,8.52,0,0,1-1.62-2.06c.33-.32.52-.6.45-.67s-.58.18-1.11.63-.89.89-.8,1,.19,0,.39-.11l.27-.17a4.46,4.46,0,0,1,1.92,1.89,7.29,7.29,0,0,0-1.58,2.75,5.87,5.87,0,0,1-2.13-.69c.08-.34.09-.59,0-.61s-.3.35-.46.84-.21.92-.11,1,.12-.07.2-.22l.1-.21a3.72,3.72,0,0,1,2.21.54,7.36,7.36,0,0,0-.11,2.55,7.76,7.76,0,0,1-3,.28c-.08-.45-.2-.76-.3-.75s-.19.58-.12,1.27.23,1.24.36,1.22.11-.15.13-.38,0-.2,0-.32a5.08,5.08,0,0,1,3.07-.49,7.28,7.28,0,0,0,1.17,2.49,5,5,0,0,1-2,1.71c-.23-.25-.43-.41-.49-.36s.11.44.43.85.64.69.72.63,0-.14-.07-.3l-.12-.21c.22-.63,1.22-1.27,2-1.69.12.13.25.27.38.39a7.33,7.33,0,0,0,1.37,1,7.1,7.1,0,0,1-1.54,2.94c-.42-.19-.74-.27-.79-.19s.37.48,1,.82,1.15.52,1.21.4-.06-.18-.24-.33l-.25-.19c-.06-.85.76-2.08,1.53-3a7.32,7.32,0,0,0,2.45.53,4.62,4.62,0,0,1,.35,2.76c-.34,0-.58.12-.58.2s.43.16.95.13.93-.13.93-.23-.11-.09-.28-.11l-.24,0a4.5,4.5,0,0,1-.21-2.75,7.33,7.33,0,0,0,2.17-.52,7.15,7.15,0,0,1,1.52,2.92c-.39.23-.65.45-.6.54S183.84,189.59,184.46,189.29Zm-3.56-15.75a.39.39,0,1,1-.55,0A.39.39,0,0,1,180.9,173.54Zm-6.63,4.38c-.35-.33.1-1.38,1-2.35s1.93-1.48,2.29-1.14-.1,1.38-1,2.35S174.62,178.25,174.27,177.91Zm5.42-1.73c.33-.61,1.8-.46,3.27.34s2.4,1.95,2.07,2.56-1.8.46-3.27-.34S179.36,176.8,179.69,176.18Zm-6.53,4.72a.58.58,0,1,1,.82,0A.58.58,0,0,1,173.16,180.9Zm2.81,1.18c-.7-1-.75-2.15-.11-2.61s1.73,0,2.42,1,.75,2.15.11,2.61S176.67,183.07,176,182.08Zm9.19-1.45a.27.27,0,1,1,0,.38A.27.27,0,0,1,185.16,180.63Zm-2.78,1.54a1.3,1.3,0,1,1-.21,2.05A1.49,1.49,0,0,1,182.38,182.17Zm-3.59,3.8c-.81.05-1.5-.34-1.53-.89s.59-1,1.4-1.08,1.5.34,1.53.89S179.61,185.92,178.79,186Z" transform="translate(0 -26.14)"/><path class="cls-5" d="M125.21,151.84c-1.15-2.18-2.42-3.76-2.84-3.54-.21.11-.17.65.07,1.44.1.32.23.68.38,1.06-1.42,2.6-6.09,4.64-10.12,6a26.05,26.05,0,0,0-4.91-5.86c-.51-.46-1-.88-1.58-1.29.41-3.22,3.24-6.81,4.26-8,1.11.53,2,.76,2.1.52s-1-1.3-2.58-2.23-3-1.42-3.22-1.11c-.09.15.16.48.62.88.19.16.41.34.67.52.14,2.25-2.06,5.45-4.11,7.9a25.88,25.88,0,0,0-8.28-3.23c-.47-3.93.82-8.62,1.36-10.38,1.63.07,2.81-.1,2.85-.46s-1.88-1.09-4.32-1.38-4.47-.15-4.53.32c0,.23.44.51,1.22.76.32.1.69.2,1.09.29,1.19,2.38.52,6.66-.51,10.44a26.18,26.18,0,0,0-11,1.36,21.65,21.65,0,0,1-3.1-6.9c1.06-.61,1.74-1.18,1.63-1.43s-1.63.06-3.3.85-2.9,1.69-2.75,2c.08.16.48.15,1.08,0,.24-.06.51-.15.81-.25,1.64,1,2.88,3.77,3.74,6.48a25.92,25.92,0,0,0-8.14,5.66,30.66,30.66,0,0,1-6.58-6.33c1-1.3,1.52-2.36,1.25-2.6s-2,.92-3.6,2.76-2.67,3.59-2.32,3.9c.18.16.67-.07,1.32-.57.26-.2.55-.45.86-.73,2.35.34,5.09,2.75,7.45,5.39a25.9,25.9,0,0,0-5,10,31.2,31.2,0,0,1-8.48-2.41c.25-1.61.21-2.8-.14-2.88s-1.29,1.75-1.85,4.14-.65,4.43-.18,4.54c.23.05.55-.38.89-1.13.14-.3.27-.66.41-1.06,2.18-.8,5.63,0,8.89,1.12a26.18,26.18,0,0,0,.9,12,23,23,0,0,1-6.54,1.95c-.49-1.12-1-1.86-1.24-1.78s-.12,1.62.48,3.37,1.36,3.07,1.69,3c.17-.06.2-.46.11-1.07,0-.25-.09-.53-.16-.83,1.09-1.41,3.67-2.32,6.27-2.88a25.89,25.89,0,0,0,5.44,8.44,30.3,30.3,0,0,1-7.15,6c-1.18-1.12-2.18-1.77-2.45-1.53s.7,2.06,2.35,3.88,3.27,3.05,3.62,2.74c.18-.16,0-.67-.42-1.38-.17-.28-.39-.6-.63-.93.62-2.39,3.5-4.95,6.52-7a25.94,25.94,0,0,0,9.93,5.31,20.88,20.88,0,0,1-2.22,7.63c-1.2-.24-2.09-.25-2.16,0s1.27,1,3,1.53,3.3.63,3.39.29c0-.17-.27-.43-.82-.7-.22-.11-.49-.22-.77-.34-.63-2,.44-5.17,1.69-7.91a26.19,26.19,0,0,0,9.08.11c1.51,3.73,1.42,8.76,1.32,10.64-1.6.33-2.7.78-2.65,1.14s2.09.6,4.53.28,4.37-.95,4.31-1.42c0-.23-.55-.38-1.37-.43-.33,0-.71,0-1.13,0-1.83-2.12-2.18-6.78-2.06-10.86A25.89,25.89,0,0,0,106.4,191c3,1.4,5.48,5.5,6.28,6.93-.88.85-1.4,1.58-1.23,1.78s1.56-.46,3-1.63,2.4-2.35,2.17-2.62-.5,0-1,.27c-.22.12-.46.27-.72.44-2.28-.7-4.64-4.22-6.23-7.1.47-.45.92-.92,1.36-1.41a26.11,26.11,0,0,0,3.47-5c4.24.49,9,3.91,10.61,5.17-.64,1.5-.89,2.66-.57,2.83s1.68-1.38,2.81-3.56,1.71-4.13,1.29-4.35c-.21-.11-.63.24-1.14.88-.21.26-.43.57-.65.92-3,.32-7.49-2.49-10.9-5.1a26,26,0,0,0,1.64-8.75c2.76-2,8.06-1.71,9.79-1.54.2,1.21.5,2,.77,2s.52-1.55.36-3.39-.56-3.31-.92-3.28c-.18,0-.31.4-.37,1,0,.24,0,.53,0,.84-1.94,1.53-6.43,1.41-9.75,1a26.08,26.08,0,0,0-2.08-7.64c2.84-3.16,8.28-5.09,10.23-5.71.87,1.38,1.68,2.25,2,2.08S126.36,154,125.21,151.84ZM69.6,166.2a1.37,1.37,0,1,1,.11,1.94A1.37,1.37,0,0,1,69.6,166.2Zm16.27,23.11c-1.15,1.29-4.93-.2-8.46-3.33s-5.45-6.71-4.31-8,4.93.2,8.46,3.33S87,188,85.86,189.31Zm-6.73-19.1c-2.21-1.11-1.83-6.34.85-11.68s6.66-8.76,8.87-7.64,1.83,6.34-.85,11.68S81.35,171.32,79.14,170.21ZM96.6,192.94a2.06,2.06,0,1,1-.17-2.9A2.06,2.06,0,0,1,96.6,192.94Zm3.9-10.13c-3.43,2.59-7.58,2.89-9.26.66s-.26-6.13,3.17-8.72,7.58-2.89,9.26-.66S103.94,180.22,100.51,182.81Zm-6.14-32.52a1,1,0,1,1,1.35-.08A1,1,0,0,1,94.37,150.29Zm5.77,9.71c-2.4-2.14-3-5.37-1.38-7.21s4.92-1.62,7.33.52,3,5.37,1.38,7.21S102.54,162.13,100.14,160ZM114,172.35c.28,2.88-1.06,5.36-3,5.55s-3.73-2-4-4.87,1.06-5.36,3-5.55S113.75,169.47,114,172.35Z" transform="translate(0 -26.14)"/><path class="cls-9" d="M362.92,269.39c.35-.17.61-.37.58-.44s-.1,0-.23,0l-.17.06a3.06,3.06,0,0,1-.9-1.64,4.16,4.16,0,0,0,1-.76l.21-.25a2.94,2.94,0,0,1,1.26.72c-.09.17-.13.31-.09.33s.21-.15.37-.4.24-.48.19-.51-.08,0-.14.1l-.09.1a2.32,2.32,0,0,1-1.24-.69,4.13,4.13,0,0,0,.56-1.31,4.49,4.49,0,0,1,1.65.27c0,.26,0,.45.06.46s.18-.29.24-.68,0-.71,0-.72-.08.07-.13.19l-.05.17a2.74,2.74,0,0,1-1.66-.13,4.18,4.18,0,0,0-.16-1.76,3.46,3.46,0,0,1,1.12-.46c.09.17.18.28.22.27s0-.26-.12-.53-.26-.47-.31-.45,0,.08,0,.17l0,.13a2,2,0,0,1-1.05.57,4.14,4.14,0,0,0-.86-1.33,4.9,4.9,0,0,1,1-1c.2.16.37.25.41.21s-.14-.32-.42-.59-.56-.44-.61-.39,0,.11.09.21l.11.14a2.44,2.44,0,0,1-.9,1.16,4.14,4.14,0,0,0-1.57-.84,5,5,0,0,1,.43-1.34c.26,0,.45,0,.46,0s-.27-.21-.65-.32-.7-.12-.72-.05.06.09.18.15l.17.07a2.39,2.39,0,0,1-.22,1.41,4.18,4.18,0,0,0-1.92.09,3.68,3.68,0,0,1-.28-1.05c.18-.07.3-.15.29-.19s-.26,0-.54.06-.5.2-.48.26.07,0,.17,0l.13,0a1.83,1.83,0,0,1,.43,1,4.14,4.14,0,0,0-1.37.83,4.84,4.84,0,0,1-.92-1.17c.19-.18.29-.34.26-.38s-.33.1-.63.36-.5.51-.45.57.11,0,.22-.06l.15-.1A2.53,2.53,0,0,1,357,261a4.14,4.14,0,0,0-.9,1.56,3.33,3.33,0,0,1-1.21-.39c0-.19.05-.33,0-.35s-.17.2-.26.48-.12.52-.06.54.07,0,.12-.13l.06-.12a2.11,2.11,0,0,1,1.26.31,4.18,4.18,0,0,0-.06,1.45,4.41,4.41,0,0,1-1.7.16c0-.26-.11-.43-.17-.43s-.11.33-.07.72.13.7.21.7.06-.09.08-.22,0-.11,0-.18a2.89,2.89,0,0,1,1.74-.28,4.14,4.14,0,0,0,.66,1.41,2.84,2.84,0,0,1-1.14,1c-.13-.14-.24-.23-.28-.2s.07.25.25.49.36.39.41.36,0-.08,0-.17l-.07-.12c.12-.36.7-.72,1.16-1l.22.22a4.17,4.17,0,0,0,.78.58,4,4,0,0,1-.88,1.67c-.24-.11-.42-.16-.45-.11s.21.27.56.47.65.29.69.23,0-.1-.13-.19l-.14-.11a3.14,3.14,0,0,1,.87-1.71,4.16,4.16,0,0,0,1.39.3,2.62,2.62,0,0,1,.2,1.57c-.19,0-.33.07-.33.11s.24.09.54.07.53-.07.53-.13-.06-.05-.16-.06h-.13a2.56,2.56,0,0,1-.12-1.56,4.16,4.16,0,0,0,1.23-.29,4.06,4.06,0,0,1,.86,1.66c-.22.13-.37.26-.34.31S362.57,269.56,362.92,269.39Zm-2-8.95a.22.22,0,1,1-.31,0A.22.22,0,0,1,360.9,260.44Zm-3.77,2.49c-.2-.19.06-.79.57-1.33s1.1-.84,1.3-.65-.06.79-.57,1.33S357.33,263.11,357.13,262.92Zm3.08-1c.19-.35,1-.26,1.86.19s1.37,1.11,1.18,1.45-1,.26-1.86-.19S360,262.29,360.21,261.94Zm-3.71,2.68a.33.33,0,1,1,.46,0A.33.33,0,0,1,356.5,264.62Zm1.6.67c-.4-.56-.42-1.22-.06-1.48s1,0,1.38.55.42,1.22.06,1.48S358.49,265.85,358.1,265.29Zm5.22-.82a.15.15,0,1,1,0,.22A.15.15,0,0,1,363.32,264.47Zm-1.58.87a.74.74,0,1,1-.12,1.17A.84.84,0,0,1,361.74,265.34Zm-2,2.16c-.46,0-.85-.2-.87-.51s.34-.59.8-.62.85.2.87.51S360.16,267.47,359.7,267.5Z" transform="translate(0 -26.14)"/><path class="cls-10" d="M667.12,437.09s-57.57.67-74.53,3.33-80.59-.67-89.08-.67-29.69,10.64-19.39,12,17,2.66,61.81,3.33,69.69.67,83.62.67,29.09-.67,41.21-3.33S708.32,433.77,667.12,437.09Z" transform="translate(0 -26.14)"/><path class="cls-10" d="M481.4,437.13s-9.08.4-11.76,2-12.72-.4-14.06-.4-4.69,6.37-3.06,7.17,2.68,1.59,9.75,2,11,.4,13.2.4a9.88,9.88,0,0,0,6.5-2C483.89,444.7,487.9,435.14,481.4,437.13Z" transform="translate(0 -26.14)"/><path class="cls-11" d="M569.21,424.3a55.64,55.64,0,0,0-.42,10.18c.21,4.24,2.92,10.25-.38,11.94s-46.44,2.12-50.11-.62-2.95-12.19,6.75-12.51,15.61-1.63,18-5.67a34,34,0,0,0,3.47-8.71Z" transform="translate(0 -26.14)"/><path class="cls-12" d="M549.81,268.5a26.58,26.58,0,0,1-5.07,1.12c-2.4.23-6.11-.36-8.92,2.73s-7.09,7.42-8.77,8.86-.13,3.34,2.18,2.19,9.18-5.36,9.41-4.87.72,3.12-2.78,5.09-7.36,4.28-6.17,5.37,2.5.55,2.83.66.94,1.11,2.36.59.57.65,2.79.12,7-1.77,9.34-3.79,2.49-7,6.6-8.34S549.81,268.5,549.81,268.5Z" transform="translate(0 -26.14)"/><path class="cls-11" d="M634.18,287.7s-8.07,46.89-6.2,57.73,6.55,11.92,9.36,20,9.83,26.54,13.1,27.63,13.45,5.48,12.52,12.52-16.61,20.77-27.37,18.6-7.14-4.58-10.88-14.33-16.38-12.46-17.78-25.46-16.38-35.21-16.38-35.21l8.89-36.83Z" transform="translate(0 -26.14)"/><path class="cls-11" d="M583.76,232.37c-1.4,2.34-8,28.54-15.44,30.88s-23.78.83-23.4,5.15,6.55,10.76,6.55,10.76,19.65-3.28,23.4-3.74,16.38-6.55,16.38-8S583.76,232.37,583.76,232.37Z" transform="translate(0 -26.14)"/><polygon class="cls-13" points="566.02 241.19 499.77 268.23 464.32 267.88 463.97 272.09 498.71 273.14 567.5 244.37 566.02 241.19"/><path class="cls-14" d="M611.6,272.84s19.69,20.94,23.86,37.74c6.08,24.48-26,35.71-26,38.26s-25,38.75-26,42.83S577,420.76,573.23,427.9s-34.63,2-34.63-7.65,2.81-14.28,7.49-23.46,0-11.22,6.08-18.87,11.69-37.31,17.08-44.82c6.32-8.81,21.76-22.86,23.16-26.43S611.6,272.84,611.6,272.84Z" transform="translate(0 -26.14)"/><path class="cls-15" d="M536,280.32a26.57,26.57,0,0,1-5.19-.19c-2.38-.39-5.82-1.89-9.32.39s-8.73,5.39-10.72,6.36-1,3.2,1.55,2.67,10.24-2.86,10.34-2.33-.1,3.2-4,4.22-8.2,2.28-7.33,3.64,2.28,1.16,2.57,1.36.63,1.31,2.14,1.16.39.78,2.67.82,7.18,0,10-1.31,4.17-6.11,8.49-6.41S536,280.32,536,280.32Z" transform="translate(0 -26.14)"/><path class="cls-14" d="M585.56,272.3s-.15,14.56,2,19.65,3.42,7.21,3,11.28-9.43,11.19-2.3,11.48,29.38,1.47,37.53.16,12.08.15,12.37-2.91,2.77-4.44-.22-12.88,0-23.51-3.06-30.57-2.11-9.1-4.95-17.4,1.89-9.54-2.84-21.33-6.67-21.67-10.19-24.46c-7.71-6.12-15.31-7.3-16.09-7.11s-5.82,1.07-5.82,1.07Z" transform="translate(0 -26.14)"/><path class="cls-14" d="M593.8,151.31s-21.07,1.39-23.41,5.14S566.18,171,566.18,171s3.74,18.25,2.34,18.72c-.92.31,9.68,8.95,13.19,17.14.26.61,2.72,8.34,2.72,8.34l26.67-12.63L609.26,194l1.58-22.46S602.65,152.41,593.8,151.31Z" transform="translate(0 -26.14)"/><path class="cls-16" d="M588.79,173.17c.47,0,16.61-2.46,22.05-1.64l-.06,1.29s-19,2.46-22.11,4.09Z" transform="translate(0 -26.14)"/><path class="cls-16" d="M586.19,191.1s20.09-8.77,24.3-13.25l-.09,1.05s-14.92,12.37-24.3,14.65Z" transform="translate(0 -26.14)"/><polygon class="cls-17" points="585.4 170.49 609.26 167.86 584.87 172.42 585.4 170.49"/><path class="cls-11" d="M586.8,198l-.18,5.7s-2.68,1.8-2.72,2.68,1.43-.48,13.31-5.1c1.36-.53-6.11,5.28-7.69,6.59s15.66-5.83,17.5-6.27a12.12,12.12,0,0,1,4.43.13s-22.24,7.69-26,14.13-4.83,7.72-4.69,7.5a26.67,26.67,0,0,1,.75-3.69c.24-.82.54-1.91.88-2.84s1.25-2.75,1.27-2.86c.21-1-3.68-10.79-3.68-10.79Z" transform="translate(0 -26.14)"/><path class="cls-18" d="M568.35,182.3s-3.51,5.15-4.45,7.72,0,7.95,0,7.95L575,207.33l10.88-4.68s1.87-9.35,1.64-12.16S570.68,179.73,568.35,182.3Z" transform="translate(0 -26.14)"/><path class="cls-11" d="M602.77,163.11s-8.25,6.49-8.77,6.67-8.6,1.58-8.6,1.58,10.53,0,12.63-.7S602.77,163.11,602.77,163.11Z" transform="translate(0 -26.14)"/><path class="cls-19" d="M567.24,164.62l-1,4.84L565,182.18l6.08,7s18-1.87,19.42-3.28-.58-16.49-2.46-17.43S567.24,164.62,567.24,164.62Z" transform="translate(0 -26.14)"/><path class="cls-20" d="M568.11,166.2l-.86,4.12-1,10.81,5.17,6s15.31-1.59,16.51-2.78-.5-14-2.09-14.82S568.11,166.2,568.11,166.2Z" transform="translate(0 -26.14)"/><path class="cls-21" d="M588.06,168.5c-1.87-.94-20.82-3.88-20.82-3.88l-1,4.7c4.75.77,13.49,2.23,14.64,2.81,1.59.8,3.28,13.62,2.09,14.82-.76.76-7.28,1.69-11.89,2.25h0s18-1.87,19.42-3.28S589.93,169.43,588.06,168.5Z" transform="translate(0 -26.14)"/><path class="cls-16" d="M634.3,279.86s-11.93,8.66-16.85,8.89-25-3.74-28.78-11.93l-5.38,2.57s7.49,9.12,17.08,11.23,17.31,2.34,21.76.94,15.21-9.36,15.21-9.36Z" transform="translate(0 -26.14)"/><path class="cls-14" d="M594.95,199.3s-9.61,7-9.9,10.77-4.08,5.82-4.66,17.18-.58,25.33-2.91,31.45-1.07,3.4-1.07,3.4-6.79,2.43-10.38,5.24-15.2,5.17-20.72,5.39c-9.8.39-13.64,5-11.4,8.1.86,1.18,2.81,16.4,6.41,16s7.42-.92,14.8-4,13.54-3.06,18.49-5.19,14.56-2.14,16.5-4,8.93-3.2,11.65-12.71,7.38-14.66,7-30.86,1.94-28.82-4.27-33.58-8.83-7.28-8.83-7.28Z" transform="translate(0 -26.14)"/><path class="cls-16" d="M620.2,212s-12.13-6.33-15.75-5.48-11.69,6.82-13.09,9.63-11.93,35.1-11.93,35.1l1.05-16.14s6.67-21.06,7.72-22.46,10.86-8.94,14.68-9.89c4.69-1.16,15.47,2.9,16.61,3.51S620.26,207.68,620.2,212Z" transform="translate(0 -26.14)"/><path class="cls-17" d="M593.3,281.38s10.35-6.14,13.34-9.12,6.14-17.55,7.55-21.41S617.69,237,617.69,237s1.4-2.11,1.23,2.28-5.44,19.83-5.44,24.92S607,278.11,607,278.11s-13.57,7.84-15.68,8-5.79-1.05-5.79-1.05S588.21,284.72,593.3,281.38Z" transform="translate(0 -26.14)"/><path class="cls-12" d="M631.73,217.45c1.05-4.21,27.37-12.17,32.29-8.42s13.86,42.47,13.86,53.7-36.67,11.58-36.67,11.58S629.54,226.22,631.73,217.45Z" transform="translate(0 -26.14)"/><path class="cls-22" d="M677.88,262.73a82.15,82.15,0,0,0-1.38-12.07c-.77-1.33-1.5-1.9-2-1-1.18,2.34-1.64,13.1-4.91-3.51-3.19-16.19-11.71-37-11.28-38.09a39.53,39.53,0,0,0-4.34.48c.68,5.81,7,58.27,14,62.26C673.63,269.11,677.88,266.55,677.88,262.73Z" transform="translate(0 -26.14)"/><path class="cls-15" d="M620.32,208.15c1.05-4.21,27.37-12.17,32.29-8.42s19.65,61.59,19.65,72.82-36.67,11.58-36.67,11.58S618.13,216.92,620.32,208.15Z" transform="translate(0 -26.14)"/><path class="cls-23" d="M624.88,206.46s15.62-2.81,24.22-2.28c0,0,11.05,21.76,13.51,43,0,0-1.23-24.39-10.88-45.8C651.73,201.37,646.64,198,624.88,206.46Z" transform="translate(0 -26.14)"/><path class="cls-16" d="M638,266.18c1.4-.12,23-5.38,23-5.38l1.05,3.16s-21.17,4.21-24,4.56Z" transform="translate(0 -26.14)"/><path class="cls-16" d="M639,270.62c1.4-.12,23-5.38,23-5.38l1.05,3.16s-21.17,4.21-24,4.56Z" transform="translate(0 -26.14)"/><path class="cls-16" d="M639.8,274.83c1.4-.12,23-5.38,23-5.38l1.05,3.16s-21.17,4.21-24,4.56Z" transform="translate(0 -26.14)"/><polygon class="cls-15" points="464.32 267.88 459.23 265.37 458.29 274.08 463.97 272.09 464.32 267.88"/><path class="cls-24" d="M652.85,411.54s-12.68,6.16-15,10.32-3.8,9.06-8.33,10.69-9.24.91-12.32,8.88l-.18,3.44s21.92.91,25.9.18,24.27-16.48,24.63-18.48-.36-2.72-2.9-5.8S659.37,409.19,652.85,411.54Z" transform="translate(0 -26.14)"/></g></g></g></g></svg>