<svg xmlns="http://www.w3.org/2000/svg" xmlns:xlink="http://www.w3.org/1999/xlink" viewBox="0 0 272.22 279.46"><defs><style>.cls-1{opacity:0.4;}.cls-2{fill:#fff;}.cls-3{fill:#3b9dbf;}.cls-4{fill:#54adcb;}.cls-5{fill:#ffd6c8;}.cls-6{fill:url(#linear-gradient);}.cls-7{fill:url(#linear-gradient-2);}.cls-12,.cls-8{fill:none;stroke-linecap:round;stroke-linejoin:round;}.cls-8{stroke:#646464;}.cls-9{fill:#706861;}.cls-10{fill:#faa281;}.cls-11{fill:#69c7d7;}.cls-12{stroke:#69c7d7;}</style><linearGradient id="linear-gradient" x1="139.7" y1="134.14" x2="151.84" y2="54.73" gradientUnits="userSpaceOnUse"><stop offset="0" stop-color="#ffe0c8"/><stop offset="1" stop-color="#d6d6f1"/></linearGradient><linearGradient id="linear-gradient-2" x1="145.98" y1="115.63" x2="136.38" y2="-4.78" gradientUnits="userSpaceOnUse"><stop offset="0.18" stop-color="#706861"/><stop offset="1" stop-color="#597281"/></linearGradient></defs><title>flu</title><g id="Layer_2" data-name="Layer 2"><g id="OBJECTS"><g class="cls-1"><g id="Layer0_1_FILL" data-name="Layer0 1 FILL"><path class="cls-2" d="M232.33,39.84Q210,17.51,182.46,7.7A137,137,0,0,0,136.11,0a141.51,141.51,0,0,0-34.83,4.19Q66.8,12.92,39.84,39.84,0,79.73,0,136.11t39.84,96.22q39.89,39.89,96.27,39.89t96.22-39.89q39.89-39.84,39.89-96.22T232.33,39.84Z"/></g></g><g id="Layer0_2_MEMBER_0_FILL" data-name="Layer0 2 MEMBER 0 FILL"><path class="cls-3" d="M168.53,174.24q.76,6,1,8.77,1.21,13.21,3.48,28.54t10.79,61.11a59.46,59.46,0,0,0,13.31-3.83Q170.5,178.17,170,177a13.73,13.73,0,0,0-1.51-2.77M104,182.11l-21.18-3.38q-2.87,6.91-5.9,15.83A270.48,270.48,0,0,0,63.05,272.2a215.29,215.29,0,0,0,36.3,6.35Q97.39,212.61,104,182.11Z"/><path class="cls-4" d="M143.22,151.45q1.41,1.77,2.62,3.58a15,15,0,0,1,1.76,3.88q.6,2.07-.1,7.31a26.47,26.47,0,0,1-2.92,9.33q-2.27,4-4.54,5.29a14.19,14.19,0,0,1-3.88,1.51,7.19,7.19,0,0,1-3.17-.3,18.77,18.77,0,0,1-4.34-2.52,18.27,18.27,0,0,1-4.54-4.39,61.42,61.42,0,0,1-4.94-9.33q-3.33-7.26-3.58-10.79a3.32,3.32,0,0,1,2.82-3.78,82.5,82.5,0,0,0-18.55,4.08q-8,1.81-17,23.39L104,182.11q-6.61,30.5-4.64,96.45,38.92,3.38,84.45-5.9-8.57-45.83-10.79-61.11T169.54,183q-.25-2.77-1-8.77A13.73,13.73,0,0,1,170,177q.45,1.16,27.07,91.82a26.76,26.76,0,0,0,2.42-1.26q-10.44-36.76-16.69-59.39t-14-43.76q-10.24-6.35-10.79-6.55Q153.86,156.29,143.22,151.45Z"/><path class="cls-5" d="M118.61,151.2a.3.3,0,0,0-.2,0,3.32,3.32,0,0,0-2.82,3.78q.25,3.53,3.58,10.79a61.42,61.42,0,0,0,4.94,9.33,18.27,18.27,0,0,0,4.54,4.39,18.77,18.77,0,0,0,4.34,2.52,7.19,7.19,0,0,0,3.17.3,14.19,14.19,0,0,0,3.88-1.51q2.27-1.31,4.54-5.29a26.47,26.47,0,0,0,2.92-9.33q.71-5.24.1-7.31a15,15,0,0,0-1.76-3.88q-1.21-1.81-2.62-3.58.2-13.87.2-21.58l-21.88-12.81q-.35,4.94-.91,13.16-.86,13.16-1,18.81-.05,1-.05,2a.54.54,0,0,0-.3.1H119a.45.45,0,0,0-.2.05Z"/></g><g id="Layer0_2_MEMBER_1_FILL" data-name="Layer0 2 MEMBER 1 FILL"><path class="cls-6" d="M156.13,75.57a13.87,13.87,0,0,1,2.17-7.26l.86-1.46a40.85,40.85,0,0,1-7.41,4.34q-6.22,3-9.63,3.38.14.91.3,1.61a35.57,35.57,0,0,0,2.32,6.4q-4.19-.61-9.38-4.64a25.87,25.87,0,0,1-5-4.89q.17,5.57-5,11.55a28.15,28.15,0,0,1-6.35,5.6,48.24,48.24,0,0,0-1.16,5.09,44.28,44.28,0,0,0-1,8.17q0,1.31.05,2.37a14.28,14.28,0,0,1-3.68-3q-3.37-3.56-3.63-7a8.55,8.55,0,0,0-2.12-.25q-4.18,0-7.16,4.44a14.84,14.84,0,0,0-2.62,8.27q0,5.14,5.65,8a14.83,14.83,0,0,0,6.4,1.92,6.69,6.69,0,0,0,1.71-.2A75.84,75.84,0,0,0,114,128.11q4.75,13.5,14.12,19.26a52.16,52.16,0,0,0,27.93,7.77q10,0,14.52-2.27,4-2,9.63-9.43,6.4-8.37,8.12-26.82.36-5.3.61-9.23.28-3.72.45-6.2.5-6.92.81-16.34A40.56,40.56,0,0,1,187,82a34.89,34.89,0,0,1-5-7.31l-.81-1.41a14.28,14.28,0,0,1-1.61,5.7,29.38,29.38,0,0,1-2.67,4.13,19.66,19.66,0,0,1-3.78-5A21.3,21.3,0,0,1,170.7,67.9v-.15q-.85,3-5.75,6.1A46.45,46.45,0,0,1,156.18,78Z"/><path class="cls-7" d="M166.46,24.44a35.78,35.78,0,0,1-5,3.23,30.71,30.71,0,0,1-12.25,3.13,17.13,17.13,0,0,1-2.67,0q-1-.2-2.52-.6A21.37,21.37,0,0,0,150,26.91a25.11,25.11,0,0,0-6.1-1.16,73.54,73.54,0,0,0-9.73-.25A43.43,43.43,0,0,0,120,28.32a53.17,53.17,0,0,0-11.34,6.6,18.9,18.9,0,0,1,1.81-2.67q1-1.36,3.43-4.34a26.48,26.48,0,0,0-7.11,2.77q-6.86,3.58-8.57,9.18a8.1,8.1,0,0,0-4.08-.76,21.34,21.34,0,0,0-7.31,1.51,9.54,9.54,0,0,0-1.76.81A16.6,16.6,0,0,1,88.51,43,11.11,11.11,0,0,1,91,44.91a4.08,4.08,0,0,0-1.06.86A20.74,20.74,0,0,0,85.89,51a24.91,24.91,0,0,0-3.23,12.3q0,5.29,3.78,11.45,1,1.71,2.27,3.43a27.53,27.53,0,0,1-4.24,5.39,34,34,0,0,1-4.84,4.24,7,7,0,0,0,1.06.1,18.13,18.13,0,0,0,6.76-1.81q1.61-.68,3.83-1.71a20.05,20.05,0,0,0-1.16,2.27A13.27,13.27,0,0,0,88.87,92a8.35,8.35,0,0,0,1.87,5.29A25.93,25.93,0,0,0,93,99.72l.1,1.46q0,4.33-4.49,9.13a28.74,28.74,0,0,1-3.38,3.13,13.53,13.53,0,0,0,3.23.45,7.41,7.41,0,0,0,5.24-2.17v1.21A12.21,12.21,0,0,0,97.94,122a37.8,37.8,0,0,0,10.39,6.3q.05.73.05,1.46a9.19,9.19,0,0,1-.71,3.13l-.1.2h0q3.23,0,5.55-3.33a12.17,12.17,0,0,0,.86-1.66A75.84,75.84,0,0,1,111.4,118a6.69,6.69,0,0,1-1.71.2,14.83,14.83,0,0,1-6.4-1.92q-5.65-2.82-5.65-8a14.84,14.84,0,0,1,2.62-8.27q3-4.44,7.16-4.44a8.55,8.55,0,0,1,2.12.25q.26,3.4,3.63,7a14.28,14.28,0,0,0,3.68,3q-.05-1.06-.05-2.37a44.28,44.28,0,0,1,1-8.17A48.24,48.24,0,0,1,119,90.19a28.15,28.15,0,0,0,6.35-5.6q5.21-6,5-11.55a25.87,25.87,0,0,0,5,4.89q5.19,4,9.38,4.64a35.57,35.57,0,0,1-2.32-6.4q-.17-.71-.3-1.61,3.41-.36,9.63-3.38a40.85,40.85,0,0,0,7.41-4.34l-.86,1.46a13.87,13.87,0,0,0-2.17,7.26l.05,2.42A46.45,46.45,0,0,0,165,73.85q4.89-3.07,5.75-6.1v.15a21.3,21.3,0,0,0,2.42,10.18,19.66,19.66,0,0,0,3.78,5,29.38,29.38,0,0,0,2.67-4.13,14.28,14.28,0,0,0,1.61-5.7l.81,1.41A34.89,34.89,0,0,0,187,82a40.56,40.56,0,0,0,3.18,2.87q-.31,9.42-.81,16.34-.17,2.48-.45,6.2a17.4,17.4,0,0,0,1.92-3.13A19,19,0,0,0,193,96.54a12.4,12.4,0,0,0,3.18,3,10.75,10.75,0,0,0,4.44,1.36,14.77,14.77,0,0,1-3.13-5.45,28.42,28.42,0,0,1-1.41-5.9q1.36-3.53,2.27-11.55a57,57,0,0,0-1.21-12.6q-1.17-5.25-6.4-10.08a11.78,11.78,0,0,0,8.22-.61,19.09,19.09,0,0,0,5.95-4.54h-.2A21.43,21.43,0,0,1,196,49.1a24.68,24.68,0,0,1-8.52-5.7q-.71-2.12-1.21-3.58-.35-.91-.66-1.51a13.24,13.24,0,0,0-1.11-2.07q-3.63-5.65-11.8-5.29A26.75,26.75,0,0,0,166.16,32q-1.16.4-4.08,1.71A13.87,13.87,0,0,0,165,30.14a9.65,9.65,0,0,0,1.61-4.08,13.82,13.82,0,0,0-.1-1.61M91.64,44.86a1.43,1.43,0,0,1,.2.35A1.43,1.43,0,0,0,91.64,44.86Z"/></g><path id="Layer0_2_MEMBER_1_1_STROKES" data-name="Layer0 2 MEMBER 1 1 STROKES" class="cls-8" d="M91.66,44.86a2.07,2.07,0,0,1,.18.35"/><g id="Layer0_2_MEMBER_1_MEMBER_0_FILL" data-name="Layer0 2 MEMBER 1 MEMBER 0 FILL"><path class="cls-2" d="M173.82,95.43a8.31,8.31,0,0,1,.35-1.51l-2.12-1.11a.94.94,0,0,1-.15.2,7.06,7.06,0,0,0,10,10,6.72,6.72,0,0,0,1.71-2.77L181.94,99a4.53,4.53,0,0,1-.45,1.46,3.29,3.29,0,0,1-3.18,1.56,4.77,4.77,0,0,1-3.18-1.06,4,4,0,0,1-1.41-3.28,16.27,16.27,0,0,1,.1-2.27m-27,.05A4.5,4.5,0,0,1,148.11,98a5.64,5.64,0,0,1-.86,2.72,4.15,4.15,0,0,1-3.83,2.42,5.63,5.63,0,0,1-3.38-.86q-1.41-1.11-1.41-3.83V97.4q-.53.05-1.11.05a8.21,8.21,0,0,0-.91-.05,8.05,8.05,0,0,0-.15,1.56,7.06,7.06,0,1,0,12-5q-1.18.64-2.12,1.11C146.53,95.2,146.66,95.34,146.8,95.48Z"/><path class="cls-9" d="M174.18,93.92a8.31,8.31,0,0,0-.35,1.51,16.27,16.27,0,0,0-.1,2.27,4,4,0,0,0,1.41,3.28,4.77,4.77,0,0,0,3.18,1.06,3.29,3.29,0,0,0,3.18-1.56,4.53,4.53,0,0,0,.45-1.46q-1.25-.87-2.72-2a58.45,58.45,0,0,0-5-3.13M148.11,98a4.5,4.5,0,0,0-1.31-2.52c-.14-.14-.27-.28-.4-.4q-1,.53-1.66.86a15.84,15.84,0,0,1-6.1,1.46v1.06q0,2.72,1.41,3.83a5.63,5.63,0,0,0,3.38.86,4.15,4.15,0,0,0,3.83-2.42A5.64,5.64,0,0,0,148.11,98Z"/><path class="cls-10" d="M162.58,108.34a.54.54,0,0,0,.1.4,12.75,12.75,0,0,0,4.18,4q.95.48,1,1a7.77,7.77,0,0,1-1.46,2.47q-1.49,1.93-2.12,2a.5.5,0,0,0,0,1q1,.09,2.92-2.42,1.71-2.32,1.66-3.08.06-1.08-1.56-1.92a12.06,12.06,0,0,1-3.83-3.73.5.5,0,0,0-.35-.2.46.46,0,0,0-.35.1A.48.48,0,0,0,162.58,108.34Z"/></g><path id="Layer0_2_MEMBER_1_MEMBER_0_1_STROKES" data-name="Layer0 2 MEMBER 1 MEMBER 0 1 STROKES" class="cls-8" d="M173.37,87.57a15.92,15.92,0,0,0,5.09,4.13,15.15,15.15,0,0,0,6.05,2.37m-36.2-5.8a19.66,19.66,0,0,1-4,3q-2.87,1.76-8.19,1.59"/><g id="Layer0_2_MEMBER_1_MEMBER_0_MEMBER_0_FILL" data-name="Layer0 2 MEMBER 1 MEMBER 0 MEMBER 0 FILL"><path class="cls-11" d="M177.66,116.36a202.29,202.29,0,0,1-26,.4q-11.89-.65-14.42-.86T130,115.3a92.53,92.53,0,0,0-2.12,10.54,32.51,32.51,0,0,0-.3,6.15,20.38,20.38,0,0,0,.15,2.92,10.08,10.08,0,0,1,.15,1.36,22.08,22.08,0,0,1-.81,2.22,12.76,12.76,0,0,0-.86,4.13,26.94,26.94,0,0,1-.5,3.23q-.44,2.61,2.67,3.58,7.16,2.86,12,4.54t14,2a51,51,0,0,0,15-1.41A63.77,63.77,0,0,0,177.1,152a15.79,15.79,0,0,0,4-2.57,13.75,13.75,0,0,0,3.63-5.19,33.78,33.78,0,0,0,.91-5.8,8.87,8.87,0,0,1,.5-3.33q1.06-2.77,1.31-3.63.55-2,1.31-6.55a52,52,0,0,0,.71-6.5,32,32,0,0,0-.15-3.48A92.63,92.63,0,0,1,177.66,116.36Z"/></g><path id="Layer0_2_MEMBER_1_MEMBER_0_MEMBER_0_MEMBER_0_1_STROKES" data-name="Layer0 2 MEMBER 1 MEMBER 0 MEMBER 0 MEMBER 0 1 STROKES" class="cls-12" d="M109.59,95.18q10.75,15.24,22.94,22.13m-21.48.91q7.38,20.82,16,28.54"/><g id="Layer0_2_MEMBER_1_MEMBER_1_FILL" data-name="Layer0 2 MEMBER 1 MEMBER 1 FILL"><path class="cls-2" d="M125.88,92.36q-1.21.15-1.21,1.71s0,.22.1.55a1.12,1.12,0,0,0,1.11.5q1.21,0,1.21-1.41t-1.21-1.36M123.61,100q1.71,0,1.71-1.61a1.92,1.92,0,0,0-1.56-2.07q-1.61-.35-1.61,1.82v1Q122.4,100,123.61,100Z"/></g><g id="Layer0_2_MEMBER_2_FILL" data-name="Layer0 2 MEMBER 2 FILL"><path class="cls-4" d="M98.55,156.34q-3.28-.3-8.42,8.27a224.32,224.32,0,0,0-10.64,19.92q-1.26,2.62-9.88,22.64-10.79,25.16-18.25,61.16a109.15,109.15,0,0,0,32.27,7.51q7.76-52.94,13.21-70.59,6.25-20.22,8.52-22.69Q105.66,167,98.55,156.34Z"/></g></g></g></svg>