<svg xmlns="http://www.w3.org/2000/svg" viewBox="0 0 463.59 348.08"><defs><style>.cls-1{isolation:isolate;}.cls-12,.cls-2,.cls-3{fill:#ffbbc8;}.cls-28,.cls-3{opacity:0.44;}.cls-11,.cls-12,.cls-13,.cls-16,.cls-19,.cls-21,.cls-26,.cls-28,.cls-29,.cls-3,.cls-43,.cls-44,.cls-5{mix-blend-mode:multiply;}.cls-32,.cls-38,.cls-4{fill:#fff;}.cls-14,.cls-19,.cls-44,.cls-5{fill:#465877;}.cls-5{opacity:0.19;}.cls-15,.cls-22,.cls-23,.cls-45,.cls-6,.cls-7{fill:none;}.cls-22,.cls-37,.cls-45,.cls-6{stroke:#fff;}.cls-22,.cls-6{stroke-linecap:round;}.cls-22,.cls-23,.cls-32,.cls-33,.cls-34,.cls-35,.cls-37,.cls-45,.cls-6,.cls-7{stroke-miterlimit:10;}.cls-6{stroke-width:2.42px;}.cls-23,.cls-7{stroke:#3a4660;opacity:0.45;}.cls-7{stroke-width:4.84px;}.cls-8{opacity:0.3;}.cls-9{fill:#3a4660;}.cls-10,.cls-11{fill:#70415e;}.cls-11,.cls-41{opacity:0.42;}.cls-12{opacity:0.66;}.cls-16{opacity:0.48;}.cls-17,.cls-34{fill:#4b7fff;}.cls-18{fill:#c99e6f;}.cls-19{opacity:0.38;}.cls-20,.cls-21{fill:#e5b58f;}.cls-21{opacity:0.49;}.cls-22{stroke-width:2.25px;}.cls-23{stroke-width:4.51px;}.cls-24,.cls-33,.cls-35,.cls-36{fill:#90b8ff;}.cls-25{fill:#c5ddff;}.cls-26,.cls-36{opacity:0.68;}.cls-27,.cls-28{fill:#ffd899;}.cls-29,.cls-39{opacity:0.54;}.cls-30{fill:#afaf89;}.cls-31{fill:#a1dbd5;}.cls-32{stroke:#d3d3d3;}.cls-32,.cls-35,.cls-37{stroke-width:2px;}.cls-33,.cls-35{stroke:#4b7fff;}.cls-33{stroke-width:1.12px;}.cls-34{stroke:#465877;}.cls-35{opacity:0.43;}.cls-37{fill:#f4e8e4;opacity:0.41;}.cls-38{opacity:0.67;}.cls-40{opacity:0.34;}.cls-42{opacity:0.57;}.cls-43{opacity:0.52;}.cls-44{opacity:0.47;}</style></defs><title>Asset 1</title><g class="cls-1"><g id="Layer_2" data-name="Layer 2"><g id="OBJECTS"><path class="cls-2" d="M112.1,34.93c-13.15-3.46-27.47-3-40.72.52A55.81,55.81,0,0,0,54.5,42.53C46.12,48.1,40.14,56.85,36.91,66.37a64.46,64.46,0,0,0-3.27,25.37c.27,3.26,6.7,14.26,4.84,16.62-3.79,4.67-6.9,9.69-11.78,13.33-.25.19-.53.42-.55.73a1,1,0,0,0,.25.62,16.54,16.54,0,0,0,8.86,6.27,6.64,6.64,0,0,1,2.86,1.23c2.52,2.38-2,5.9-1.55,8.55.21,1.23,1.61,1.84,2.84,2a11,11,0,0,0,3.22,0c-1.52.23-3.35,3.53-3.27,4.93.14,2.29,2.48,3,3.72,4.67,2.69,3.59,1.55,8.19,3.48,12.06a15.42,15.42,0,0,0,11.11,8.73c8.47,1.47,17.82-1.8,26.41-2a5.71,5.71,0,0,1,2.87.44,5.3,5.3,0,0,1,2,2.24c3.31,6,3.9,13.22,2.77,20s-3.87,13.14-6.92,19.28c8.17-4.31,16.76-8.59,25.85-10.58,3.77-.83,19.34-2.94,21.1,1.24a132.86,132.86,0,0,1-9.88-39.64c-2.53-28.18,25.15-44,30.71-69.76,4.18-19.4-6.78-40.14-23.63-50.61A61.29,61.29,0,0,0,112.1,34.93Z" transform="translate(-13.53)"/><path class="cls-3" d="M81,146.73c1.79,13.16-12.18,21.86-23.49,23.75,9,1.79,17.66-.9,26.67-1.13a5.71,5.71,0,0,1,2.87.44A5.3,5.3,0,0,1,89,172c3.31,6,3.9,13.22,2.77,20-.95,5.65-3.37,10.95-4.89,16.49L104.11,204a1.8,1.8,0,0,0,1.61-2.29c-.29-12.51-2.9-24.83-5.25-37.18a15.06,15.06,0,0,0,5.91-3.8,1.34,1.34,0,0,1,.84-.53,1.31,1.31,0,0,1,.79.37c4.17,3.24,9.36,4.81,14.42,6.3-.95-.28-.58-8.6-.59-9.82a32.67,32.67,0,0,1,1.63-10c2-6.65,5.55-12.7,9.36-18.45,7.55-11.4,16.8-22.3,19.75-36C156.77,73.16,145.81,52.42,129,42a61.29,61.29,0,0,0-16.8-7.15c-13.15-3.46-27.47-3-40.72.52A55.82,55.82,0,0,0,54.56,42.4C42,50.77,37.86,62.64,34.47,76.66c.66-2.73,3.74-9.65,7.08-9.89a53.85,53.85,0,0,0,29.63,6.3c-.75,1.73-2.69,16.53-1.05,17.49-8-5-17.94-6.05-27.23-4.64-3.15.48-6.52,2.09-5.53,5.77l1.46,5.44c.71,2.64,1.5,5.42,3.48,7.29s5.58,2.32,7.28.18c2.24-2.82-.28-7.57,2-10.35,1.77-2.15,5.13-1.65,7.83-.95,3.27.85,6.86,1.93,8.6,4.83,2.4,4,0,9.07-2.45,13a3.54,3.54,0,0,1-1,1.17c-3.24,2.06-10.65-2.51-13.65-3.6s-6.31-2.18-9.32-1.11A114.63,114.63,0,0,1,73.41,133C76.91,137,80.24,141.48,81,146.73Z" transform="translate(-13.53)"/><path class="cls-4" d="M36.49,108.26c-5,5.42-13.9,10.12-11.77,17.78,2.92,10.53,6,21.23,11.86,30.43s15.17,16.85,26,18.16c12.83,1.54,26.79-15.22,23.72-27.34-1-3.85-3.61-7-6.3-10a136.08,136.08,0,0,0-25.48-21.61c-5.31-3.48-10.56-7-16.48-9.44A17.21,17.21,0,0,1,36.49,108.26Z" transform="translate(-13.53)"/><path class="cls-5" d="M36.21,108c-1.12,1.26-2.23,3.07-3,3.92A38.47,38.47,0,0,1,44,121.68c1.12,1.48,2.18,3.28,1.8,5.1-.45,2.17-2.71,3.41-4.78,4.2a44.33,44.33,0,0,1-14.23,2.88c2.43,2.26,6.19,2.09,9.46,1.56a71.83,71.83,0,0,0,18.21-5.51C52.4,134.22,48,137,43.53,138.64s-9.26,2.47-13.73,4.17c4.3,1.69,9.11,1.35,13.69.68,7.75-1.14,15-4.61,22.66-5.45A13.34,13.34,0,0,1,61.58,142a76.56,76.56,0,0,1-21.43,8.79A76.87,76.87,0,0,0,66.88,144a49.56,49.56,0,0,1-9.3,6.48L72.74,146c-7.68,8.12-19.12,11.23-30,14a71.8,71.8,0,0,0,35.44-7.81c-1,9.83-6.61,17.4-14.78,22.28,6.3,1.09,13.7-4.22,17.46-8.83,4-4.93,7.11-11.83,5.47-18.28-1-3.85-3.61-7-6.3-10A136.08,136.08,0,0,0,54.6,115.81c-3.58-2.35-7.15-4.75-10.92-6.79-1.53-.82-4.31-2.82-5.9-2.24A4.48,4.48,0,0,0,36.21,108Z" transform="translate(-13.53)"/><path class="cls-6" d="M64.25,124.54l3.46-9.28c3.41-9.14,6.11-19.84,16-24.35,8.73-4,17.88-2,18.45,8.92.45,8.47.52,18-5.37,24.09C91.25,129.66,81.45,131,78,138.23" transform="translate(-13.53)"/><path class="cls-7" d="M33.7,109.87c4.47,3.34,9.78,6.3,12.45,11.41" transform="translate(-13.53)"/><g class="cls-8"><path class="cls-9" d="M25.82,132.08a22,22,0,0,0,7.11,1.17,31,31,0,0,0,7.35-.91A51,51,0,0,0,47.44,130a24.25,24.25,0,0,0,6.6-3.69,24.58,24.58,0,0,1-6.31,4.31,52,52,0,0,1-7.07,3.06A32.66,32.66,0,0,1,33,135.3a24.42,24.42,0,0,1-8-.59Z" transform="translate(-13.53)"/></g><g class="cls-8"><path class="cls-9" d="M28.16,139.74a31.47,31.47,0,0,0,9.62.68,56.49,56.49,0,0,0,9.74-1.69,52.45,52.45,0,0,0,18.07-8.24A53.14,53.14,0,0,1,47.91,140a58.18,58.18,0,0,1-9.9,2.42,33.87,33.87,0,0,1-10.38,0Z" transform="translate(-13.53)"/></g><g class="cls-8"><path class="cls-9" d="M33.48,149.37a18.21,18.21,0,0,0,6,.75,35.5,35.5,0,0,0,6.23-.75,73.58,73.58,0,0,0,12.22-3.82A74.25,74.25,0,0,1,46,150.7a37.21,37.21,0,0,1-6.42,1.47,20.58,20.58,0,0,1-6.82-.15Z" transform="translate(-13.53)"/></g><g class="cls-8"><path class="cls-9" d="M38,157.66a43.31,43.31,0,0,0,15.25-1,30.22,30.22,0,0,0,13.66-7.11A30.9,30.9,0,0,1,53.65,158a45.35,45.35,0,0,1-15.84,2.43Z" transform="translate(-13.53)"/></g><path class="cls-9" d="M65.24,88.31a60.9,60.9,0,0,1-8.24.44c-2.65,0-5.25-.13-7.78-.21a48.87,48.87,0,0,0-7.23.11,6.35,6.35,0,0,0-2.85.91l-.3.22c-.09.09-.16.19-.25.28a3.67,3.67,0,0,0-.48.7,7.87,7.87,0,0,0-.36.89l-.26,1c-.21-.3-.38-.62-.57-1a8.41,8.41,0,0,1-.33-1.12A4.5,4.5,0,0,1,36.91,88a6.17,6.17,0,0,1,.69-1.19,7.79,7.79,0,0,1,.92-1,6.84,6.84,0,0,1,1-.76,7.16,7.16,0,0,1,1.08-.6,19.35,19.35,0,0,1,8.77-1.5,31.51,31.51,0,0,1,8.28,1.45A23.77,23.77,0,0,1,65.24,88.31Z" transform="translate(-13.53)"/><path class="cls-9" d="M47.19,98.42c-1.8-3-5.23-2.07-5.28,1.45-.06,4.48,1.28,6.28,2.73,6.44,2.28.24,4.85-3.59,2.75-7.53Z" transform="translate(-13.53)"/><path class="cls-10" d="M155.12,94.3a28.94,28.94,0,0,0,.77-8.39c-.84-14.39-1.29-26.25-9.56-38.79a20.15,20.15,0,0,1,12.31,3,20.47,20.47,0,0,0-14.5-10.74,44.68,44.68,0,0,1,9-5.57c-4.76-2.62-11.59.1-13.25,5.26-10-11.76-23.36-21.46-39.25-22.29-15.17-.8-33,4.7-47.65,8.4A105,105,0,0,0,39.9,7a111.19,111.19,0,0,0,3.95,20.38L30.34,13A32.36,32.36,0,0,0,39,35.19a39.57,39.57,0,0,0-21.17,1.55c-2.39.86-5.15,3.09-4,5.36l19.31,2.52A28.7,28.7,0,0,0,19,62.34a37.39,37.39,0,0,1,13.75-5.73A12.2,12.2,0,0,0,28,66.85c6.42-5.79,15.59-10.24,23.57-6.9,4.29,1.8,7.8,4.45,12.4,5.61,2.37.6,14.47,3.37,16.24,1.66C75.31,72,76,81.16,81.52,85.16c-6.07,6-5.81,15.66-5.13,24.14C76,104.71,87.22,90.52,92.44,92.74c3.73,1.58,4.35,8.11,4.14,11.45-.32,5-1.85,9.89-2.74,14.84-3.51,19.74,13.22,39.61,31.79,44.2l-2.81-4.11a12.48,12.48,0,0,0,8.62.54L128,155.27l3.58.77c-4.53-12,2.15-25.08,9.4-35.62C146.57,112.26,152.9,103.69,155.12,94.3Z" transform="translate(-13.53)"/><path class="cls-11" d="M149.46,91.4c1.4-6.29.88-13-.4-19.34a84.35,84.35,0,0,0-6.17-18.83c-1.48-3.19-2.58-4.67.9-6.85a10.47,10.47,0,0,1,8-1.25A12.88,12.88,0,0,0,146.85,42a6.32,6.32,0,0,0-3.69-.34,3.18,3.18,0,0,0-2.43,2.56A15.68,15.68,0,0,1,142.06,39a10.1,10.1,0,0,0-4.47,6.61c-3.59-3.83-8.25-6.73-11.74-10.51-3.27-3.55-5-6.76-9.7-9C107.61,22,97.65,22,88.27,23.32s-18.6,3.84-28.06,4.46c-4,.26-8.49,0-11.32-2.86-3.41-3.44-3.15-9.42-6.65-12.78A43.63,43.63,0,0,0,46.3,30.81a28.87,28.87,0,0,1-15-11.73A24.78,24.78,0,0,0,45.7,39a139.77,139.77,0,0,0-30,1.68A76.86,76.86,0,0,0,47,43.91c-8.77.91-16.75,7.64-22.2,14,2.3-2.7,9.15-4.09,12.46-4.89,4.14-1,8.66-2.29,12.93-1.68a35.79,35.79,0,0,0-13.53,7c7.06-1.89,15.07-1.09,21.07,2.88a32.26,32.26,0,0,0,23.47,5.23A8.25,8.25,0,0,0,78,76.64a37.14,37.14,0,0,1,5.4-8C84.83,67,87.49,65.43,89,67l-6.15-6.69A35.2,35.2,0,0,1,95,64.52l-4.54-7.43a29.12,29.12,0,0,1,15.25,7.43L99.49,54c6.92,2.78,13.18,6.58,17.21,13.06a47,47,0,0,0-6.26-18.15,98.86,98.86,0,0,1,13.31,9.74c.13-5.24-2.49-10.25-6.07-14.08s-8.07-6.66-12.5-9.45a45.54,45.54,0,0,1,25.76,14.48A29.75,29.75,0,0,0,124,39.86,19.5,19.5,0,0,1,133.81,45a24.67,24.67,0,0,0-6.63-8.8,27.92,27.92,0,0,1,11,12.94,37.82,37.82,0,0,1-6.71-4,116,116,0,0,1,6,11l-8.32-4.3,3.56,6.37c-1.56-.79-5.6-1.3-6.52-2.73a15.28,15.28,0,0,1,2.17,9.15,21.46,21.46,0,0,0-7.54-4.75,26.92,26.92,0,0,1-3.15,13.72l-5.74-7.88a47.62,47.62,0,0,1-1,12A45,45,0,0,0,98.62,65.85a29.59,29.59,0,0,1-1,13,36.72,36.72,0,0,0-6.48-10l-3,14.08-1.77-6.59c-1.94,6-6.8,14.54-5.27,20.78,1.55-4.17,2.35-5.4,7.49-4.93l6.33.58a1.55,1.55,0,0,1,1.13.43,1.5,1.5,0,0,1,.24.71c1.82,11.65-2.11,21.78,3.65,33.13a229.56,229.56,0,0,0,7.46-34.63l3,12.23.85-20.39a66.45,66.45,0,0,1,4.64,16.34,216.37,216.37,0,0,0,9.77-24.82,86.48,86.48,0,0,1,2.81,20,87.56,87.56,0,0,0,7-26.45,68.46,68.46,0,0,1,3.47,16.41L142.93,66a44.68,44.68,0,0,1-7.6,36.76A45.28,45.28,0,0,0,136,91.94L124,117.5a163.86,163.86,0,0,1,1.44-21.61c-5.77,10.54-11.69,21.6-12,33.62a88,88,0,0,1-3.58-20.6,66.17,66.17,0,0,0-3.88,29.82,37.8,37.8,0,0,1-5.36-9.52c-.56,12,5.5,17.46,13.49,24.67,1.32,1.19,4.52,2.85,5.43,4.08a27.88,27.88,0,0,1-5.07-12A19,19,0,0,0,127.5,158.5,23.4,23.4,0,0,1,122,144.27a36.31,36.31,0,0,0,5.26,7.56c-3.46-13.1,1.68-27.1,9.41-38.23,4.17-6,9.17-11.61,11.67-18.47A29.92,29.92,0,0,0,149.46,91.4Z" transform="translate(-13.53)"/><path class="cls-2" d="M80.53,105.22a17,17,0,0,1,3.32-14.08A10.08,10.08,0,0,1,94,87.32c5,1.25,8,6.63,8.91,11.74a30.47,30.47,0,0,1-2.54,18.79,16.33,16.33,0,0,1-6,7.11c-3.51,2.08-9.22.32-10.35-3.71" transform="translate(-13.53)"/><path class="cls-12" d="M100.33,117.85c-1.48,3-3.47,6.36-6.76,7.68a7.22,7.22,0,0,1-6.46-.69,6.29,6.29,0,0,1-2.29-1.74c-.42-.58-.51-2.28-.86-2.6,2.08,1.94,5.24,2.36,8,1.8,6.52-1.31,9-11.09,8.64-16.68a14.63,14.63,0,0,0-3.22-8.42,6.63,6.63,0,0,1,1.36,3.22,21,21,0,0,1-2.91-1.69c2.16,1.5,2.71,5.83,2.68,8.2a10.94,10.94,0,0,1-3.07,7.88,6.43,6.43,0,0,1-2.56,1.53,5.13,5.13,0,0,1-4.65-1c-2-1.67-2.67-5.08-3.14-7.51a17.75,17.75,0,0,1,.64-9.93c1.5-3.73,5.07-6.79,9.09-6.81a7,7,0,0,0-7.19-.83,10.56,10.56,0,0,0-5.16,5.39,22,22,0,0,0-1.7,7.4A10.52,10.52,0,0,1,81,96.65c1.79-5.62,6.41-11,13-9.34,5,1.25,8,6.63,8.91,11.74A30.47,30.47,0,0,1,100.33,117.85Z" transform="translate(-13.53)"/><g class="cls-13"><path class="cls-2" d="M88.82,116.78a19.77,19.77,0,0,1-3.35-7.3,21.49,21.49,0,0,1-.26-8.16,14.32,14.32,0,0,1,1.28-4,7.45,7.45,0,0,1,3-3.24,5.69,5.69,0,0,1,2.18-.63,7,7,0,0,1,2.17.27,8.09,8.09,0,0,1,3.32,2.39,10.37,10.37,0,0,0-3.55-1.36,6,6,0,0,0-1.75.1,4.68,4.68,0,0,0-1.51.67,6.36,6.36,0,0,0-2,2.69,13.23,13.23,0,0,0-1,3.49,28.1,28.1,0,0,0-.21,7.55A39.93,39.93,0,0,0,88.82,116.78Z" transform="translate(-13.53)"/></g><g class="cls-13"><path class="cls-2" d="M86.58,104.72a2.52,2.52,0,0,1-.12-1.58,3.49,3.49,0,0,1,.84-1.46,4.43,4.43,0,0,1,3.16-1.35,3.22,3.22,0,0,1,1.89.55,5.33,5.33,0,0,1,1.29,1.26,7.11,7.11,0,0,1,1.3,3.17,9.46,9.46,0,0,1-1.45,6.3,7.78,7.78,0,0,1-2.1,2.46,2.4,2.4,0,0,1-3.09-.1,2.12,2.12,0,0,0,2.42-.7A9.05,9.05,0,0,0,92,110.87a10.18,10.18,0,0,0,.83-5.23A6,6,0,0,0,92,103.3a4.26,4.26,0,0,0-.74-.9,1.71,1.71,0,0,0-.89-.41,3.61,3.61,0,0,0-2.37.5A2.64,2.64,0,0,0,86.58,104.72Z" transform="translate(-13.53)"/></g><path class="cls-9" d="M75.13,214.67c-24.14,40-44.06,79.86-53.23,127,36.81,2.82,74.2-1,111.2.3.28,0,4.59-15.89,5.31-17.9,7.26-20.44,14-41.4,15.19-63.21.8-14.94-2.44-29.45-8.28-43.15a205,205,0,0,0-9.53-19,60.56,60.56,0,0,1-4.84-10.13,1.38,1.38,0,0,1-.08-1c.17-.41.68-.56,1-.87,1.22-1.2-.94-3.71.34-4.84-7.65-1.32-16.15,1.16-23.46,3.39-12.85,3.91-25.18,9.35-37.48,14.78,2.65-1.17,8.46,2.91,10.07,4.5Q78.19,209.6,75.13,214.67Z" transform="translate(-13.53)"/><path class="cls-14" d="M115.59,312.71q4.46-13.86,8.66-27.8c4.86-16.12,11.91-31.86,11.91-49.15.79-9.71.86-20.22-4.67-28.24a24.84,24.84,0,0,0-20.17-10.37c-12.56,0-20.05,6.58-23.86,17.51q-7.2,20.64-13.69,41.51-6.9,22.17-13,44.57-3.12,11.47-6,23c-1.51,6-1.79,13.4-5.52,18.5l53.5-.4a3.52,3.52,0,0,0,4.22-3Q111.38,325.82,115.59,312.71Z" transform="translate(-13.53)"/><path class="cls-15" d="M0,343.9" transform="translate(-13.53)"/><g class="cls-16"><path class="cls-15" d="M136.23,221.38" transform="translate(-13.53)"/><path class="cls-17" d="M84.56,220.14a32.4,32.4,0,0,1,4-9.78,30.29,30.29,0,0,1,7.05-8.09,25.35,25.35,0,0,1,9.69-4.77,19.23,19.23,0,0,1,10.59.23,30.15,30.15,0,0,0-18.58,6.69,41.88,41.88,0,0,0-7,7.15A87,87,0,0,0,84.56,220.14Z" transform="translate(-13.53)"/><path class="cls-18" d="M96.05,335.69a36.24,36.24,0,0,1,2.44-2.8l2.4-2.49,2.44-2.45a35.11,35.11,0,0,1,2.75-2.49,8.92,8.92,0,0,1-1,3.74,12.49,12.49,0,0,1-5.31,5.41A9,9,0,0,1,96.05,335.69Z" transform="translate(-13.53)"/><path class="cls-18" d="M144.41,266.53a4.42,4.42,0,0,1,.37,1.95,4.89,4.89,0,0,1-.35,1.65,4.8,4.8,0,0,1-.9,1.43,4.38,4.38,0,0,1-1.63,1.14,4.38,4.38,0,0,1-.37-1.95,4.8,4.8,0,0,1,.36-1.65,4.89,4.89,0,0,1,.9-1.43A4.42,4.42,0,0,1,144.41,266.53Z" transform="translate(-13.53)"/></g><path class="cls-19" d="M77.51,212.37,89.06,205l-2.13,7.76a37.78,37.78,0,0,1,11-8.77c5.42-2.88,10.58-2.89,15.5,1a5.87,5.87,0,0,1,2.45,5.08,7.57,7.57,0,0,1-2.22,4c-4.94,5.4-12.16,9.26-14.43,16.22,1.09-1.36,3.54,0,3.67,1.75s-1.09,3.26-2.24,4.57l-17.48,20a3,3,0,0,0-1,1.86c0,1.44,1.87,2,3.3,2.12l7.84.7c-2-.3-10.56,26.65-11.39,29.73-3.07,11.42-9.11,22.75-13.52,33.73-1.54,3.84-3.12,7.74-5.67,11s-6.26,5.85-10.39,6.1c-.7,0-1.55-.07-1.87-.7a2,2,0,0,1,.08-1.5c6.49-20.07,13.2-39.73,18.35-60.2,2.82-11.2,5.59-22.41,8.83-33.5,2.8-9.56,5.9-18.84,7.44-28.73A379.66,379.66,0,0,1,59.71,260c-2.84,4.13-5.88,8.32-10.13,11-1.33.83-2.95,1.8-3,3.36a4.12,4.12,0,0,0,.55,1.82,73.27,73.27,0,0,0,7,11.63,18.83,18.83,0,0,1-15.68,3.78c-.42,2.08,1,4.14,2.85,5.25s3.95,1.51,6,2.17c.61.2,1.31.54,1.41,1.18a1.78,1.78,0,0,1-.43,1.21,23.93,23.93,0,0,1-18,10.23c-1.18,2,.51,4.42,2.13,6.08s3.39,4,2.35,6c-1.29,2.54-5.69,2.11-6.83,4.71a5.37,5.37,0,0,0-.26,2.46l.65,12.47c8-1.78,16.63-1,24.73-1,8.92,0,17.83-.32,26.75-.35,17.75-.05,35.5-.13,53.25-.13.28,0,4.59-15.89,5.31-17.9,7.26-20.44,14-41.4,15.19-63.21.8-14.94-2.44-29.45-8.28-43.15a205,205,0,0,0-9.53-19,60.56,60.56,0,0,1-4.84-10.13,1.38,1.38,0,0,1-.08-1c.17-.41.68-.56,1-.87,1.22-1.2-.94-3.71.34-4.84-7.65-1.32-16.15,1.16-23.46,3.39-12.85,3.91-25.18,9.35-37.47,14.77,3-1.3,8.2,2.44,10,4.55A54.16,54.16,0,0,0,77.51,212.37Z" transform="translate(-13.53)"/><path class="cls-20" d="M398,25.26c12.74-2.63,26.39-1.53,38.86,2.29a53.58,53.58,0,0,1,15.75,7.34c7.71,5.55,13,13.95,15.55,22.95A58.39,58.39,0,0,1,470,81.57c-.43,3-7.15,13-5.49,15.24,3.37,4.51,6.08,9.32,10.55,12.92.23.19.49.41.48.7a1,1,0,0,1-.27.56,16,16,0,0,1-8.79,5.44,6.5,6.5,0,0,0-2.79,1c-2.53,2.1,1.6,5.57,1,8-.26,1.13-1.63,1.64-2.82,1.75a10.78,10.78,0,0,1-3.07-.14c1.44.28,3,3.43,2.86,4.73-.25,2.12-2.53,2.7-3.79,4.18-2.76,3.21-1.91,7.55-4,11.06a14.88,14.88,0,0,1-11.07,7.63c-8.17,1-16.92-2.46-25.11-3.05a5.61,5.61,0,0,0-2.77.29,5,5,0,0,0-2,2c-3.48,5.43-4.42,12.12-3.69,18.46s3,12.39,5.6,18.23c-7.57-4.37-15.56-8.74-24.13-11-3.56-.94-18.32-3.59-20.22.22a122,122,0,0,0,11.51-36.42c3.89-26.1-21.72-42-25.68-66.23-3-18.22,8.57-37,25.21-46A60,60,0,0,1,398,25.26Z" transform="translate(-13.53)"/><path class="cls-21" d="M398.08,25.26c12.74-2.63,26.39-1.53,38.86,2.29a53.58,53.58,0,0,1,15.75,7.34c7.71,5.55,13,13.95,15.55,22.95a81.65,81.65,0,0,1,2.33,14.6,121.33,121.33,0,0,0-12.95-26.36A45.75,45.75,0,0,1,458.68,63c-.25,2-2.28,6.51-1.83,8.3s4.55,2,6.58,2.51c1.44.34,3.1.87,3.6,2.27,1.27,3.58-3,11.06-5.49,13.43-1.51,1.42-3.89,2.43-5.62,1.28-2-1.32-1.8-4.56-3.75-5.91-1.71-1.18-4.35-.75-6,.28a17.31,17.31,0,0,0-4.2,4.21c-3.91,4.94-3.38,8.12-1.16,13.78a130.51,130.51,0,0,1,22.58-7.62c-.68.16,2.1,13.41,2,14.7-.16,2.55-2.68,4.2-4.93,5.43l-10.11,5.53c-2.47,1.35-5.43,2.72-8,1.51a8.48,8.48,0,0,1-3.24-3.46,74.91,74.91,0,0,1-7.76-17.14c-1.33,9.89.3,19.92,1.93,29.77q-7.92-4.45-15.5-9.45A48.58,48.58,0,0,0,446,153.69c-9.12,3.3-18.9-1.4-28.15-2.06a5.61,5.61,0,0,0-2.77.29,5,5,0,0,0-2,2c-2.78,4.35-4.78,11.07-4.14,16.24-4.5-1.28-8.87-3.35-13.39-4.7a3,3,0,0,1-.21,1.8l-19-1.86q.87-3.26,1.7-6.52c2.09-8.21,5.28-16.83,4.19-25.37-.88-6.87-3.75-13.24-7.16-19.19-6.86-12-16.33-23.12-18.62-37.13-3-18.22,8.57-37,25.21-46A60,60,0,0,1,398.08,25.26Z" transform="translate(-13.53)"/><path class="cls-4" d="M466.37,96.81c4.46,5.27,12.74,10,10.31,17.06-3.34,9.66-6.81,19.47-12.92,27.77s-15.37,15-25.8,15.73c-12.33.86-24.79-15.35-21.22-26.47,1.13-3.53,3.82-6.38,6.54-9a131.14,131.14,0,0,1,25.46-19c5.26-3,10.46-6.08,16.23-8A15.91,15.91,0,0,0,466.37,96.81Z" transform="translate(-13.53)"/><path class="cls-5" d="M466.11,96.76c-7.21,5-14.82,10.43-17.95,18.6,2.53,3.73,6.59,6.21,10.86,7.64a62.25,62.25,0,0,0,13.28,2.39c-1.58,1.77-4.18,2.15-6.55,2.14-9.23,0-17.85-4.28-26.09-8.42,5.44,9.32,15.44,15.4,26,17.8a44.42,44.42,0,0,1-24-6.59A26.83,26.83,0,0,0,458.31,144c-2.3-.63-5-.43-7.32-1a37.83,37.83,0,0,1-7.66-2.72c-2.84-1.37-7.12-4.16-8.79-6.93a5.82,5.82,0,0,0-1.83,2.95,30.82,30.82,0,0,0-1.63,8.05c-.21,3.12.11,6.41,1.8,9s5,4.39,8,3.47c-4,.48-7.4.67-11.12-1.15a25.18,25.18,0,0,1-8-6.39c-4.18-4.95-7.09-12-5-18.46,1.13-3.53,3.82-6.38,6.54-9a131.14,131.14,0,0,1,25.46-19c5.09-2.91,10.54-6.59,16.28-8A6.61,6.61,0,0,0,466.11,96.76Z" transform="translate(-13.53)"/><path class="cls-22" d="M439,110.72l-2.82-8.78c-2.77-8.65-4.79-18.72-14-23.36-8.13-4.08-17-2.61-18.09,7.47-.87,7.85-1.44,16.71,3.87,22.64,5,5.59,14.29,7.29,17.23,14.14" transform="translate(-13.53)"/><path class="cls-23" d="M469.84,100.13c-2.48,2.87-10.46,3.55-13.37,8.35" transform="translate(-13.53)"/><g class="cls-8"><path class="cls-9" d="M475.91,121.91a23.92,23.92,0,0,1-7.58.2,31.63,31.63,0,0,1-7.2-1.86,49.63,49.63,0,0,1-6.61-3.15,23.42,23.42,0,0,1-5.85-4.31,23.12,23.12,0,0,0,6.14,3.74,48.68,48.68,0,0,0,6.73,2.51,30,30,0,0,0,7,1.16,21.69,21.69,0,0,0,6.83-.78Z" transform="translate(-13.53)"/></g><g class="cls-8"><path class="cls-9" d="M473.05,129a33.15,33.15,0,0,1-9.85-.42,56.29,56.29,0,0,1-9.31-2.67,50.77,50.77,0,0,1-16.48-9.7,50.13,50.13,0,0,0,16.88,8.49,54.72,54.72,0,0,0,9.2,2,30.91,30.91,0,0,0,9.19-.21Z" transform="translate(-13.53)"/></g><g class="cls-8"><path class="cls-9" d="M467.62,137.67a20.13,20.13,0,0,1-6.47-.16,36.12,36.12,0,0,1-6-1.65A71.54,71.54,0,0,1,444,130.55a70.92,70.92,0,0,0,11.48,4.1,34.53,34.53,0,0,0,5.91,1,17.93,17.93,0,0,0,5.72-.44Z" transform="translate(-13.53)"/></g><g class="cls-8"><path class="cls-9" d="M462.39,145.24a44.15,44.15,0,0,1-14.92-2.94,29.43,29.43,0,0,1-12.31-8.45,28.8,28.8,0,0,0,12.72,7.24,42.25,42.25,0,0,0,14.45,1.6Z" transform="translate(-13.53)"/></g><path class="cls-9" d="M456.63,93.43c.77,1.47,2.23,1.86,4.15-.49,1.2-1.47,2-7.94-1.07-8-1.57,0-2.79,1.44-3.29,2.93A7.66,7.66,0,0,0,456.63,93.43Z" transform="translate(-13.53)"/><g class="cls-13"><path class="cls-14" d="M444,73.07a13.45,13.45,0,0,1,6.89-3.64,19.81,19.81,0,0,1,7.81,0,18.38,18.38,0,0,1,7.33,3,9.53,9.53,0,0,1,1.64,1.49,5.06,5.06,0,0,1,1.18,2.25,3.28,3.28,0,0,1,0,1.39,2.85,2.85,0,0,1-.58,1.11,3.8,3.8,0,0,1-1.73,1.15,5.24,5.24,0,0,0,.42-1.73,1.15,1.15,0,0,0-.46-1A7.87,7.87,0,0,0,464.08,76a60,60,0,0,0-6.37-1.49c-2.23-.43-4.37-.82-6.58-1.06S446.62,73.18,444,73.07Z" transform="translate(-13.53)"/></g><path class="cls-24" d="M419.27,194.67c1.64,5.49,3,10.55,6.23,15.38,4.87,7.32,8.85,15,13.72,22.22,4.44,6.56,9.39,13.27,10.17,21.41.89,9.34-3.4,19.82-8.3,27.55a15.24,15.24,0,0,0-2.1,4,12.87,12.87,0,0,0-.22,4.11c.6,10.18,2.65,20.05,4.13,30.08.93,5.87,2.14,11.61,5.15,16.75l-88.76-.87c9.51-15.92,1.67-31.48-3-47.46-5.06-17.16-9.4-34.75-9.68-52.73-.2-12.45,1.73-25,6.85-36.4s13.73-21.1,19-32.77a97.61,97.61,0,0,1,52.82,15.28c-2.9-.76-5.86,1.7-6.7,4.57S418.42,191.8,419.27,194.67Z" transform="translate(-13.53)"/><path class="cls-25" d="M430.1,336.84s-37.43.91-41,.76c-1.29-14.22-3.52-27.82-6.14-41.91-1.68-9.06-3-18.36-5.45-27.26C372,248,367,227.07,367.88,205.77c.28-6.34,1.15-12.85,4.34-18.34,4.48-7.71,11-10.06,17.63-9.16,23.48,3.16,27.11,25.44,28.53,45C421.15,261.24,421.13,299.78,430.1,336.84Z" transform="translate(-13.53)"/><g class="cls-26"><path class="cls-14" d="M418.42,192.34a14,14,0,0,0,.43,1.35c-2.24-2.29-3.3-5.46-5.87-7.6a41.14,41.14,0,0,0-11-6.28,7.15,7.15,0,0,1,2.12,3c-.63-1.7-6.15-3.07-7.82-3.2a6.63,6.63,0,0,0-6.44,3.32,3.78,3.78,0,0,0-.49,2.07c.16,1.65,1.72,2.74,2.77,4,2.45,3,2.2,7,2,10.61q-.36,7.4-.52,14.81-.3,14.81.3,29.63c.06,1.49.54,3.43,2,3.51a3.06,3.06,0,0,0,1.63-.57l4.25-2.47c-.77,3.18-3.2,5.64-5,8.4s-2.8,6.59-.78,9.16a2,2,0,0,0,.9.71c1,.33,1.91-.69,2.6-1.51s2-1.56,2.71-.79a39.33,39.33,0,0,0-6.11,15.65,8.1,8.1,0,0,0,.41,5.06c.81,1.52,2.9,2.47,4.33,1.51l.94,14.48a79,79,0,0,0,1.77,14.1,42.2,42.2,0,0,0,16.54,24.14c.88.61,2,1.2,3,.8a3.09,3.09,0,0,0,1.32-1.25c4.48-6.69,2.6-15.56,1-23.45-6.86-33.65-5.6-68.36-8.28-102.6l10.36,24.76a22.1,22.1,0,0,0,3.77,6.69c2.2,2.37,5.32,3.66,7.78,5.77,4.27,3.65,6.18,9.58,5.79,15.19s-2.87,10.9-6.13,15.48c-2,2.77-4.32,5.49-4.94,8.84a18.73,18.73,0,0,0,0,4.89q1.88,23.57,4.34,47.08c.07.66-34.21,1.87-37.65,1.94q-20.19.44-40.36-.81c7.74-17.29,1.16-34-3.83-50.86-5.06-17.16-9.4-34.75-9.68-52.73-.2-12.45,1.73-25,6.85-36.4s13.73-21.1,19-32.77a97.79,97.79,0,0,1,41.82,9.22q3.34,1.56,6.56,3.38c1.43.81,3.37,2.39,4.94,2.72-3.18-.65-6.14,1.8-7.19,4.67A10.64,10.64,0,0,0,418.42,192.34Z" transform="translate(-13.53)"/></g><path class="cls-27" d="M335.15,73q.52-2.49,1.1-5c3.08-13,6.52-22.65,15.49-32.36a72.58,72.58,0,0,1,31.4-20c36.18-11.36,88.28,2.79,90.68,46.58.3,5.55-.28,12.84-2.88,17.87.95-1.83-.25-7-.44-9-.29-3.14-.48-6.66-1.45-9.67-1.69-5.25-3.72-10.9-6.66-15.62a42.8,42.8,0,0,0-8.18-9.33c-1.65-1.47-6.13-2.76-7.07-4.47a39.92,39.92,0,0,1,1.28,35.1c-4.81,10.57-14.18,18.75-18,29.73-3.34,9.69-1.92,20.3-.28,30.42-6.52-4.8-7.93-13.89-7.9-22,0-3.56,1.31-27.79-6.4-23.45a6.61,6.61,0,0,0-2.7,3.86c-2,6.2-.57,12.92.31,19.38,2.56,18.9,0,39.05,8.12,56.29a97.45,97.45,0,0,1-11.51-30.44c3,15.42,1.41,28.24,12.65,40.72a83,83,0,0,1-35.77-15l5.62,7.08a48.31,48.31,0,0,1-30.88-6.49l.54,8.43a35.81,35.81,0,0,1-21.72-18.48l-3.75,5.71A178,178,0,0,1,335.15,73Z" transform="translate(-13.53)"/><path class="cls-28" d="M473.88,62.31c.3,5.55-.28,12.84-2.88,17.87.95-1.83-.25-7-.44-9-.29-3.14-.48-6.66-1.45-9.67-1.69-5.25-3.72-10.9-6.66-15.62a42.81,42.81,0,0,0-8.18-9.33c-1.65-1.47-6.13-2.76-7.07-4.47a39.92,39.92,0,0,1,1.28,35.1c-4.81,10.57-14.18,18.75-18,29.73-3.34,9.69-1.92,20.3-.28,30.42-6.52-4.8-7.93-13.89-7.9-22,0-3.56,1.31-27.79-6.4-23.45a6.61,6.61,0,0,0-2.7,3.86c-2,6.2-.57,12.92.31,19.38,2.56,18.9,0,39.05,8.12,56.29A97.45,97.45,0,0,1,410.15,131c3,15.42,1.41,28.24,12.65,40.72-8.38-1.36-13.44-5.82-17.51-13.22-5.62-10.19-8.44-21.66-10.78-33.06A85.84,85.84,0,0,0,399,161.1c-3.25-3.44-5.42-7.76-7.24-12.14a100.82,100.82,0,0,1-7.57-34.54A112.55,112.55,0,0,0,383,159.07c-7.17-18.59-6.09-39.2-4.64-59.07a193.48,193.48,0,0,0-7.61,53.06c-6.29-19-5.87-39.51-4.06-59.43-7.17,19.88-10.21,41.05-11.09,62.16-5.28-26.27-.61-53.5,6.13-79.44-10.67,19.35-16.77,41-20,62.82a168.77,168.77,0,0,1-2.12-50.65c-4.63,19.06-4.28,38.93-3.89,58.54-6-23.95-5.57-49.84-.56-74q.52-2.49,1.1-5c3.08-13,6.52-22.65,15.49-32.36a73.67,73.67,0,0,1,14.84-12.35,59.52,59.52,0,0,1,14.9-7.15c6-1.82,12.76-1.18,18.47-3A58.33,58.33,0,0,0,378.5,25.58a83.78,83.78,0,0,1,18.35-9.11,97.74,97.74,0,0,0-44.2,64.37c5.06-16.09,13.65-31.2,25.77-42.93S406.29,18,423,16C412.9,20.58,403.13,26.21,395,33.78s-14.65,17.16-17.35,28a83.3,83.3,0,0,1,28.59-32.25A77.88,77.88,0,0,0,384,66.68c5.84-16.56,18.35-30.33,33.35-39.46,6.15-3.74,13.23-6.85,20.34-5.78A82.44,82.44,0,0,0,408,44.93a106.25,106.25,0,0,0-9.72,15c-3.45,6.27-4.51,12.89-7.08,19.37A98.43,98.43,0,0,1,425,35.94a109.32,109.32,0,0,0-11.63,29.17,65.11,65.11,0,0,1,16.74-22.36,78,78,0,0,0-3.22,23.74c4.14-4.15,7.58-8.16,9.73-13.65,1.82-4.64,6.22-15.83,4.13-20.76a36.29,36.29,0,0,1,2.87,13.56,67.26,67.26,0,0,0-2.81-22.55,95.93,95.93,0,0,1,17.77,10.57l-5.71-8.26C465.35,32,473.88,48.25,473.88,62.31Z" transform="translate(-13.53)"/><path class="cls-20" d="M424.48,92A15.42,15.42,0,0,0,422,78.79a9.68,9.68,0,0,0-9.46-4c-4.88.94-7.94,5.81-9.12,10.52a27.62,27.62,0,0,0,1.44,17.59,15.1,15.1,0,0,0,5.34,6.88c3.24,2.09,8.79.71,10.08-3" transform="translate(-13.53)"/><path class="cls-21" d="M424.48,92c1.26-5.12-.74-17.44-8.25-16.81,3.79,3.58,7.87,12.07,4.18,16.86.4-.51-.36-3.81-.47-4.51a9.1,9.1,0,0,0-1.68-4.63,6.38,6.38,0,0,0-8.52-.68,9.41,9.41,0,0,0-3.18,7.45,23.67,23.67,0,0,0,1.87,8.13,7.34,7.34,0,0,0,2,3.29,2.64,2.64,0,0,0,3.52,0c-.6,1.3-1.36,2.73-2.74,3.1s-2.71-.48-3.74-1.42a15.15,15.15,0,0,1-3.06-3.88l-.71.7c1.4,3.67,3.14,7.94,6.58,10.16,3.24,2.09,8.79.71,10.08-3" transform="translate(-13.53)"/><g class="cls-13"><path class="cls-18" d="M416,102.41a36.3,36.3,0,0,0,2.05-7,25.26,25.26,0,0,0,.18-7.08,11.71,11.71,0,0,0-.79-3.3,5.62,5.62,0,0,0-1.85-2.55,4.75,4.75,0,0,0-3.07-.81,10.38,10.38,0,0,0-3.41,1.1,8,8,0,0,1,3.23-2.06,6.51,6.51,0,0,1,2-.18,5.13,5.13,0,0,1,2,.62A5.36,5.36,0,0,1,418,82.51a8,8,0,0,1,1.11,1.75,12.81,12.81,0,0,1,1,3.85,19.65,19.65,0,0,1-.65,7.65A18.37,18.37,0,0,1,416,102.41Z" transform="translate(-13.53)"/></g><g class="cls-13"><path class="cls-18" d="M418.72,91.29a2.4,2.4,0,0,0-1.2-2.14,3.51,3.51,0,0,0-2.23-.56,1.83,1.83,0,0,0-.89.34,3.62,3.62,0,0,0-.76.8,5.61,5.61,0,0,0-.95,2.14,9.06,9.06,0,0,0,.52,4.93,8,8,0,0,0,1.12,2.3,2.06,2.06,0,0,0,2.26.74,2.31,2.31,0,0,1-2.91,0,7,7,0,0,1-1.89-2.39,8.68,8.68,0,0,1-1-6,6.57,6.57,0,0,1,1.43-2.89,5.24,5.24,0,0,1,1.3-1.09,3.08,3.08,0,0,1,1.78-.4,4.25,4.25,0,0,1,2.9,1.38,3.19,3.19,0,0,1,.74,1.4A2.3,2.3,0,0,1,418.72,91.29Z" transform="translate(-13.53)"/></g><g class="cls-29"><path class="cls-30" d="M390.24,157.38a37.4,37.4,0,0,1-5.4-19.21,92.28,92.28,0,0,1,2.4-20q1.16-4.89,2.68-9.68c1.08-3.17,2.23-6.32,3.58-9.38s2.85-6.05,4.49-9a82.6,82.6,0,0,1,5.49-8.35c-1.53,3-3,5.91-4.37,8.92s-2.59,6.07-3.76,9.14a150.56,150.56,0,0,0-5.62,18.88c-.74,3.2-1.34,6.42-1.85,9.67a94.67,94.67,0,0,0-1.06,9.75A44.76,44.76,0,0,0,390.24,157.38Z" transform="translate(-13.53)"/><path class="cls-30" d="M361.68,162.61a147.22,147.22,0,0,1-2.18-31.72,157,157,0,0,1,4.65-31.56,178.21,178.21,0,0,1,10.78-30,128.16,128.16,0,0,1,7.44-14.11c2.87-4.48,6.42-8.68,11-11.48a38.75,38.75,0,0,0-9.88,12.12,156.1,156.1,0,0,0-6.7,14.27c-2,4.88-4,9.75-5.6,14.74s-3.2,10-4.52,15.09-2.43,10.22-3.22,15.41c-.49,2.58-.78,5.19-1.14,7.79-.2,1.3-.27,2.61-.41,3.92s-.28,2.61-.37,3.92A208.05,208.05,0,0,0,361.68,162.61Z" transform="translate(-13.53)"/><path class="cls-30" d="M340.19,150.23c-.84-11.74-1.79-23.47-2-35.27A165.16,165.16,0,0,1,340.8,79.6a90.71,90.71,0,0,1,13.34-32.9A69.76,69.76,0,0,1,365.8,33.25a56,56,0,0,1,14.89-9.53C370.31,29.34,362,37.95,355.81,47.78a90,90,0,0,0-7.72,15.59A98.54,98.54,0,0,0,343.3,80.1c-2.31,11.42-3,23.14-3.14,34.86S340.41,138.46,340.19,150.23Z" transform="translate(-13.53)"/><path class="cls-30" d="M406.57,108.72a118.52,118.52,0,0,0-1.08,16.46,90.08,90.08,0,0,0,1.58,16.24l.85,4,1.08,3.92,1.28,3.87q.77,1.88,1.5,3.79a68.16,68.16,0,0,0,8.29,14.16A46,46,0,0,1,410,157.83c-.61-1.27-1.21-2.54-1.78-3.82l-1.5-3.95-1.2-4-.94-4.11a68.53,68.53,0,0,1-1.06-16.77A63.92,63.92,0,0,1,406.57,108.72Z" transform="translate(-13.53)"/><path class="cls-30" d="M441.82,33A37.34,37.34,0,0,1,445,45.68a52,52,0,0,1-.67,13.11c-.4,2.15-.89,4.29-1.49,6.39s-1.3,4.17-2.11,6.18A73.69,73.69,0,0,1,434.92,83c1.3-4.14,2.68-8.2,3.89-12.29.58-2.05,1.18-4.09,1.66-6.16s1-4.13,1.31-6.21A74.22,74.22,0,0,0,443,45.75,65.88,65.88,0,0,0,441.82,33Z" transform="translate(-13.53)"/><path class="cls-30" d="M432.78,23.77a48.52,48.52,0,0,0-12.84,6.55A60.57,60.57,0,0,0,409.4,40a97.43,97.43,0,0,0-8.56,11.59c-2.61,4.07-5,8.3-7.58,12.49a89.14,89.14,0,0,1,5.87-13.5,73.7,73.7,0,0,1,3.82-6.35,67.37,67.37,0,0,1,4.53-5.91,48.37,48.37,0,0,1,11.37-9.63A34.12,34.12,0,0,1,432.78,23.77Z" transform="translate(-13.53)"/><path class="cls-30" d="M412.06,21.15a23.76,23.76,0,0,0-8.17,3.76,82.69,82.69,0,0,0-7.16,5.51q-1.74,1.45-3.42,3c-1.15,1-2.24,2.06-3.39,3.08-2.26,2.07-4.52,4.17-7,6.12a63.15,63.15,0,0,1,5.53-7.5,58.49,58.49,0,0,1,6.59-6.64c1.21-1,2.45-2,3.75-2.86a40.18,40.18,0,0,1,4.07-2.42A16.05,16.05,0,0,1,412.06,21.15Z" transform="translate(-13.53)"/></g><path class="cls-31" d="M310.51,143.26c6.48-17,3.79-39.74,4.6-56.62.79-16.6,3-34.87-3.18-50.74C302.15,10.75,272.21-1.51,245.28.15,221.77,1.6,197.81,12.68,185.91,33c-9.94,17-10.81,37.3-9.31,56.45a322.59,322.59,0,0,0,9.48,55.44c1.76,6.81,3.55,14.05,9,18.93,6.38,5.74,14.4,9.39,22.14,12.87a1.21,1.21,0,0,1,.63.48,1.25,1.25,0,0,1,0,.79c-.24,1.3.49,11.94-.68,12.43-5.12,2.13-10.63,3.13-16.08,4.12-20.92,3.79-40.55,7.25-60.77,14.12-5.78,2-11.69,4.17-16.16,8.34s-7,9.66-9.47,15.1C107,248.76,99.33,265.43,92.1,282.31q-5.53,12.9-10.86,25.89c-1,2.47-9.19,26.1-10.54,26,10.55,1.72,21.67,1.19,32.34,2,6.47.48,13.09,1.46,19.58,1.4,40.07-.36,80.08,2.66,120.19,2.59,41.48-.07,82.95-1.3,124.43-1.24,10.55,0,22.42-.8,32.78.79-4.4-9.36-5.09-20.67-7.24-30.72q-3.46-16.22-7.15-32.39c-4.25-18.6-4.8-43.55-19.71-57.54-3.86-3.63-8.93-5.64-13.91-7.46A371.78,371.78,0,0,0,284.93,194a7.22,7.22,0,0,1-3.25-1.09c-3.52-2.66-2.91-9.33-2.58-13.11a3.9,3.9,0,0,1,.26-1.29,4,4,0,0,1,1.35-1.41A127.45,127.45,0,0,0,305,153.24,38.41,38.41,0,0,0,310.51,143.26Z" transform="translate(-13.53)"/><path class="cls-32" d="M282.53,240.25a23.86,23.86,0,0,0,23.24-9.41s7.11,13.36,21.9,11.81c0,0,5,51.22-25.19,49.61C273,290.69,282.53,240.25,282.53,240.25Z" transform="translate(-13.53)"/><path class="cls-33" d="M285.7,244.9s11.85,2.54,19.73-7.68c0,0,6.06,11,18.63,9.73,0,0,4.37,42-21.32,40.65C277.72,286.27,285.7,244.9,285.7,244.9Z" transform="translate(-13.53)"/><polygon class="cls-34" points="286 247.84 297.04 248.43 296.54 257.89 306.05 258.39 305.49 268.93 295.98 268.42 295.4 279.33 284.35 278.75 284.94 267.65 275.23 267.13 275.78 256.78 285.49 257.3 286 247.84"/><path class="cls-2" d="M299.83,91.52c-1.27,18.67-2.79,44.6-16,59.24C272.67,163,257.1,169,240.52,166c-32.17-5.78-42-36-45.41-64.38a104.19,104.19,0,0,1,.59-28.51c.82-5,2-11,4-15.58s7.63-8.8,11.7-11.77a62.53,62.53,0,0,1,32.83-12c15.43-.93,31.39,3.91,43,14C298.66,57.74,300.71,78.58,299.83,91.52Z" transform="translate(-13.53)"/><path class="cls-3" d="M299.93,91.52c-.51,9.39-2,18.58-3.41,27.77-1.31.12-9.24.58-10-.38a43.73,43.73,0,0,1,5.23,7.59c4.44,8.89-1.94,17.71-7.87,24.26C272.77,163,257.2,169,240.62,166c-32.17-5.78-42-36-45.41-64.38a104.19,104.19,0,0,1,.59-28.51c.82-5,2-11,4-15.58s7.63-8.8,11.7-11.77a61.55,61.55,0,0,1,75.87,2.08c4.32,3.54,6.44,8.26,8.65,13.22a49.62,49.62,0,0,0-27.43-17.31,63.62,63.62,0,0,0-32.66,1.12c-12.52,3.64-22.17,10.73-27.24,23,.39-.94,13.64-3,15.28-3.09,7.05-.61,14.14-.85,21.21-.91,14.19-.1,28.36.67,42.52,1.45,3,.16,6.06.38,8.55,2C302.28,71.21,300.26,85.46,299.93,91.52Z" transform="translate(-13.53)"/><path class="cls-35" d="M307.6,70.07c-.23-3-1.4-5.2-4.7-7.19s-7-2.77-10.59-3.66c-6.25-1.56-12.71-2.05-19.11-2.53a290.39,290.39,0,0,0-34.77-.05c-15.82.82-31.37,2.09-46.06,8.49-7.43,3.23-6.85,11.15-6.24,18.29a95.45,95.45,0,0,0,6.26,26.75c3.24,8.25,17.07,6.59,23.6,3a13.4,13.4,0,0,0,2.48-1.94c6.52-6,12.76-13.08,20.8-17.1,8.34-4.17,14.65-2.05,21.68,3.23a119.86,119.86,0,0,1,12,11c3.22,3.18,7.65,4.16,12,4.47,6.55.47,15.36,3.25,17.09-5,2.38-11.39,4.77-22.84,5.52-34.47A22.71,22.71,0,0,0,307.6,70.07Z" transform="translate(-13.53)"/><path class="cls-36" d="M231.79,82.37a28.75,28.75,0,0,1,6.73-9c6.2-5.2,16-4.58,21.71,1.08,3.33,3.29,4.06,8.37,5.33,12.66,3.35,11.31,15.26,17.44,26.67,15.15a10.2,10.2,0,0,0,4.26-1.7c5.34-4.09,4.29-18.46,4.35-24.55,0-2-.12-4.28-1.5-5.78A8.65,8.65,0,0,0,296,68.35c-13.14-5.21-28.87-5-42.86-5.34S226,64.8,212.25,66.76c-4.84.69-15.39,1.69-18.76,5.89-1,1.27-.92,3.08-.76,4.7.61,6.51.53,24.06,8,26.91,7,2.68,17.51.53,22.31-5.47,3.11-3.9,5-8.59,7.13-13.11C230.69,84.57,231.22,83.46,231.79,82.37Z" transform="translate(-13.53)"/><path class="cls-37" d="M195.85,109.59c-2.33-2.78-3.13-7.05-4.1-10.57a76.15,76.15,0,0,1-2.6-15.74c-.19-3.25-1-8.49.42-11.5s5.44-4.34,8.24-5.24c17.5-5.65,35.31-6.6,53.55-6.91a220.34,220.34,0,0,1,25.67.72c7.47.75,17,1.48,23.63,5.14a7.81,7.81,0,0,1,3.56,3.07,7.77,7.77,0,0,1,.51,3.33c.05,10.78-2.34,22.08-4.79,32.58a9.26,9.26,0,0,1-1.38,3.55c-1.61,2.12-5,1.52-7.35,1.47a65.93,65.93,0,0,1-13.65-1.41c-5.65-1.33-11.15-4-14.8-8.56-2.63-3.26-4.17-7.29-6.72-10.63s-6.73-6-10.77-4.93c-5.47,1.51-7.75,8.75-11,12.75a42.29,42.29,0,0,1-15.3,11.64c-5.08,2.28-12.45,4.84-18,4A7.78,7.78,0,0,1,195.85,109.59Z" transform="translate(-13.53)"/><path class="cls-38" d="M217.37,62.16a5.66,5.66,0,0,1,2-.46l7.79-.84L201.67,112.3c-2.69-.34-6.07-1.36-6.27-4.06a5.85,5.85,0,0,1,.37-2.13,164.57,164.57,0,0,1,19.64-41.87A5.58,5.58,0,0,1,217.37,62.16Z" transform="translate(-13.53)"/><path class="cls-38" d="M277.69,60.12a44.38,44.38,0,0,1,12.2,1.34l-20,43.3a18.4,18.4,0,0,1-4.84-2.83A6.22,6.22,0,0,1,262.79,97a9.2,9.2,0,0,1,.8-2.69Z" transform="translate(-13.53)"/><path class="cls-38" d="M282.08,108.38a1.87,1.87,0,0,1-1.39.09l-3.94-.76,17-45.32,4.75,1.5L282.69,107.4A1.87,1.87,0,0,1,282.08,108.38Z" transform="translate(-13.53)"/><path class="cls-38" d="M208.26,111.51c2.42-2.9,3.82-7.39,5.51-10.77l6.11-12.24c4.56-9.13,9.48-18.15,13.33-27.59a1.27,1.27,0,0,1,1.58-.93l4.67.11c-4.23,9.73-9.43,19.11-14.39,28.49-3.58,6.77-6.81,15.19-11.83,21.06a5.53,5.53,0,0,1-5.15,2.06Z" transform="translate(-13.53)"/><path class="cls-38" d="M303.74,81.56q-1.36,11.57-3.69,23c-.33,1.63-.84,3.47-2.32,4.22a5.34,5.34,0,0,1-2.27.41q-2.31.06-4.63-.07Z" transform="translate(-13.53)"/><path class="cls-38" d="M188.75,76.13A9.4,9.4,0,0,1,190,70.83a9.49,9.49,0,0,1,4.74-3,59.05,59.05,0,0,1,7.6-2.22,75.77,75.77,0,0,0-12.43,25.5A106.74,106.74,0,0,1,188.75,76.13Z" transform="translate(-13.53)"/><g class="cls-39"><path class="cls-24" d="M207,108.82c4.4-1.25,8.86-2.39,12.82-4.48A20.3,20.3,0,0,0,225,100.4,30.3,30.3,0,0,0,228.9,95c2.23-3.86,4.07-8.1,6.77-12a24.16,24.16,0,0,1,5-5.34,12.43,12.43,0,0,1,7.23-2.52,12.67,12.67,0,0,1,3.84.59,14.18,14.18,0,0,1,3.45,1.72,15.35,15.35,0,0,1,2.79,2.59A25.07,25.07,0,0,1,260,83c2.43,4.12,3.95,8.46,6.07,12.34a17.7,17.7,0,0,0,3.82,5.16,16.12,16.12,0,0,0,5.78,2.87,67.7,67.7,0,0,0,13.41,2.22,53.8,53.8,0,0,1-13.78-.8,17.63,17.63,0,0,1-6.62-2.75,18.9,18.9,0,0,1-4.63-5.53c-2.5-4-4.09-8.36-6.46-12a27.36,27.36,0,0,0-1.89-2.61,12.47,12.47,0,0,0-2.24-2,11.26,11.26,0,0,0-2.68-1.31,9.87,9.87,0,0,0-2.91-.42A9.45,9.45,0,0,0,242.36,80,22.88,22.88,0,0,0,238,84.67c-2.62,3.52-4.51,7.69-7.09,11.61a30,30,0,0,1-4.46,5.51,21.71,21.71,0,0,1-6,3.88A52.62,52.62,0,0,1,207,108.82Z" transform="translate(-13.53)"/></g><g class="cls-40"><path class="cls-9" d="M212.66,90a4.2,4.2,0,0,0,3.13,0,5,5,0,0,0,2.66-5.49,4.66,4.66,0,0,0-3.2-3.51c-3.32-.92-6.23,2.73-5.46,5.86A4.66,4.66,0,0,0,212.66,90Z" transform="translate(-13.53)"/><path class="cls-9" d="M280,90.82a4.2,4.2,0,0,0,3.13,0,5,5,0,0,0,2.66-5.49,4.66,4.66,0,0,0-3.2-3.51c-3.32-.92-6.23,2.73-5.46,5.86A4.66,4.66,0,0,0,280,90.82Z" transform="translate(-13.53)"/></g><g class="cls-41"><path class="cls-14" d="M197.25,79.17a15.1,15.1,0,0,1,5.39-8,20.64,20.64,0,0,1,9-4,23.24,23.24,0,0,1,9.71.22,18.88,18.88,0,0,1,8.48,4.33c-3.23.15-6.12.17-8.93.36a66.19,66.19,0,0,0-8.13,1A42.15,42.15,0,0,0,205,75.21,51.81,51.81,0,0,0,197.25,79.17Z" transform="translate(-13.53)"/><path class="cls-14" d="M267.94,70.55a19.85,19.85,0,0,1,7.21-4.19,24.29,24.29,0,0,1,8.26-1.29,20.61,20.61,0,0,1,8.34,1.86,13.57,13.57,0,0,1,6.34,5.69c-2.84-.54-5.26-.94-7.67-1.16s-4.74-.34-7.13-.39-4.83,0-7.35-.07A65.68,65.68,0,0,1,267.94,70.55Z" transform="translate(-13.53)"/></g><path class="cls-4" d="M262.85,168.1a57,57,0,0,1-30-.35C223.1,165,213.57,160,207.65,151.6c-6.24-8.89-1.08-22.84,4-31.31,5.27-8.73,12.85-15.83,20.9-22.09,4.33-3.37,9.56-6.9,15.28-6.83,11.4.16,22.85,13.86,29.6,21.77,5.69,6.68,8.91,13.68,12.19,21.68,3.16,7.69.75,15.08-5.18,21.07A49.3,49.3,0,0,1,262.85,168.1Z" transform="translate(-13.53)"/><path class="cls-23" d="M233,107A28.16,28.16,0,0,1,245.6,96.46,6.22,6.22,0,0,1,249,95.8a6.36,6.36,0,0,1,2.36,1.06c4.11,2.65,7,6,10.08,9.71" transform="translate(-13.53)"/><g class="cls-8"><path class="cls-9" d="M221.41,121.14c4.38-.27,8.73-.33,13.08-.38l13-.12c2.17,0,4.33,0,6.5-.08l6.5-.11c4.34-.1,8.67-.24,13.06-.3a88.3,88.3,0,0,1-12.93,2.29c-2.18.26-4.36.39-6.54.54s-4.37.17-6.56.21c-4.37,0-8.75-.1-13.1-.45A124.67,124.67,0,0,1,221.41,121.14Z" transform="translate(-13.53)"/></g><g class="cls-8"><path class="cls-9" d="M212.12,132.44c5.72,0,11.41.3,17.09.52s11.35.45,17,.52l4.25.07h4.25l4.25,0c1.41,0,2.83-.07,4.25-.09,5.67-.16,11.33-.5,17-.93a103.35,103.35,0,0,1-16.91,2.92c-1.43.13-2.85.24-4.28.34l-4.29.21-4.29.08h-4.29c-5.72-.13-11.43-.48-17.11-1.1S217.73,133.54,212.12,132.44Z" transform="translate(-13.53)"/></g><g class="cls-8"><path class="cls-9" d="M223.42,145.88l12.36.41c4.1.08,8.19.14,12.27.06l3.07,0,3.07-.1,3.07-.12c1-.07,2-.11,3.07-.15l12.34-.77a73.73,73.73,0,0,1-12.14,2.75c-2.06.32-4.13.5-6.2.7s-4.15.23-6.23.29a97.37,97.37,0,0,1-12.45-.63A74.14,74.14,0,0,1,223.42,145.88Z" transform="translate(-13.53)"/></g><g class="cls-8"><path class="cls-9" d="M236.17,157.27a37.43,37.43,0,0,1,5-.49c1.64-.07,3.26-.08,4.88,0s3.24.1,4.88.23a36.74,36.74,0,0,1,5,.68A20.22,20.22,0,0,1,251,159a29.64,29.64,0,0,1-5,.32,30,30,0,0,1-5-.51A20.42,20.42,0,0,1,236.17,157.27Z" transform="translate(-13.53)"/></g><g class="cls-42"><path class="cls-14" d="M200.44,143.55a137,137,0,0,1-10.14-36,132.43,132.43,0,0,1,.37-37.48c.51-3.09,1.06-6.19,1.8-9.24l.53-2.29c.24-.77.45-1.57.75-2.32a22.22,22.22,0,0,1,1-2.22l.55-1.08.63-1c3.41-5.48,8.33-9.72,13.53-13.26a65,65,0,0,1,17.06-8.17,72.5,72.5,0,0,1,9.19-2.29,75.58,75.58,0,0,1,9.4-1.17A72.82,72.82,0,0,1,264,28.3a55,55,0,0,1,17.65,6.87,42.14,42.14,0,0,1,13.57,13.22A55.64,55.64,0,0,1,302.11,66a95.52,95.52,0,0,1,2.14,18.7,138.07,138.07,0,0,1-.87,18.76c-.7,6.23-1.9,12.35-2.92,18.51s-2.41,12.34-5.26,17.92a45.24,45.24,0,0,0,3-8.83c.74-3,1.27-6.1,1.75-9.17.86-6.18,1.92-12.33,2.46-18.53A138.89,138.89,0,0,0,303,84.73a94.14,94.14,0,0,0-2.37-18.39,56.65,56.65,0,0,0-6.87-17,40.37,40.37,0,0,0-13.07-12.6,53.1,53.1,0,0,0-17.09-6.54A71.19,71.19,0,0,0,245.21,29,73.61,73.61,0,0,0,236,30.1a70.58,70.58,0,0,0-9,2.19,63.08,63.08,0,0,0-16.62,7.86c-5.08,3.42-9.85,7.52-13.08,12.66l-.59,1-.52,1a20.51,20.51,0,0,0-.92,2.05c-.28.69-.47,1.42-.7,2.13l-.55,2.26c-.78,3-1.36,6-1.91,9.1a131.74,131.74,0,0,0-.92,37.11A141.47,141.47,0,0,0,200.44,143.55Z" transform="translate(-13.53)"/><path class="cls-14" d="M202.73,45.77a4.28,4.28,0,0,1-2.52.34,5.92,5.92,0,0,1-4.16-2.77,4.26,4.26,0,0,1-.65-2.46l1.84,1.43c.57.43,1.12.83,1.69,1.21s1.15.74,1.76,1.1S202,45.33,202.73,45.77Z" transform="translate(-13.53)"/><path class="cls-14" d="M208.41,39.12c-.47-1.06-.88-2-1.35-2.93a27.91,27.91,0,0,0-1.5-2.62,28.6,28.6,0,0,0-1.77-2.45c-.64-.81-1.35-1.57-2.11-2.44A6.92,6.92,0,0,1,204.85,30a9.36,9.36,0,0,1,3.69,5.73A7,7,0,0,1,208.41,39.12Z" transform="translate(-13.53)"/><path class="cls-14" d="M215.14,33.73a3.24,3.24,0,0,1-1.46-.87,4.15,4.15,0,0,1-.87-1.31,4.1,4.1,0,0,1-.32-1.54,3.21,3.21,0,0,1,.41-1.65,5.62,5.62,0,0,1,1.1,1.2,6.67,6.67,0,0,1,.66,1.22,6.86,6.86,0,0,1,.4,1.33A5.72,5.72,0,0,1,215.14,33.73Z" transform="translate(-13.53)"/><path class="cls-14" d="M226.33,28.38a1.17,1.17,0,0,0,.57-1.2,4.64,4.64,0,0,0-.28-1.36c-.28-1-.64-1.92-.95-2.93a14,14,0,0,1-.66-3.24,5.47,5.47,0,0,1,.76-3.33,16.9,16.9,0,0,0,.79,3c.33,1,.71,1.92,1,3a11.94,11.94,0,0,1,.58,3.3,4.08,4.08,0,0,1-.33,1.83,2.18,2.18,0,0,1-.61.77A1,1,0,0,1,226.33,28.38Z" transform="translate(-13.53)"/><path class="cls-14" d="M239,25.84l.06-3.36,0-3.36a3,3,0,0,1,1.49,1.4,4.17,4.17,0,0,1-.06,4A3,3,0,0,1,239,25.84Z" transform="translate(-13.53)"/><path class="cls-14" d="M250.67,24.3A5.62,5.62,0,0,1,249,22.5a7.78,7.78,0,0,1-.88-2.22A7.7,7.7,0,0,1,248,17.9a5.58,5.58,0,0,1,.7-2.34,13.72,13.72,0,0,1,.86,2.19c.22.7.4,1.39.56,2.09s.29,1.4.41,2.13A14,14,0,0,1,250.67,24.3Z" transform="translate(-13.53)"/><path class="cls-14" d="M256.72,24.72a7.24,7.24,0,0,1-.08-1.77,9.85,9.85,0,0,1,.23-1.53,9.53,9.53,0,0,1,.47-1.47,7.11,7.11,0,0,1,.87-1.55,3.6,3.6,0,0,1,.7,1.72,4.76,4.76,0,0,1-.09,1.76,4.81,4.81,0,0,1-.71,1.61A3.63,3.63,0,0,1,256.72,24.72Z" transform="translate(-13.53)"/><path class="cls-14" d="M264.55,25.79a1.76,1.76,0,0,0,1-.87,4.51,4.51,0,0,0,.43-1.19,11,11,0,0,0,.21-1.28c.05-.48.12-1,.18-1.43.14-1,.3-1.9.51-2.86a18.88,18.88,0,0,1,.85-2.92,9.44,9.44,0,0,1,.72,3,13.41,13.41,0,0,1-.1,3,15.06,15.06,0,0,1-.3,1.5,6,6,0,0,1-.64,1.56,3.85,3.85,0,0,1-1.2,1.28A1.72,1.72,0,0,1,264.55,25.79Z" transform="translate(-13.53)"/><path class="cls-14" d="M273.48,27.88a2,2,0,0,1-1.09-1.12,2.69,2.69,0,0,1,.54-2.85,2,2,0,0,1,1.43-.64c0,.59,0,1,0,1.36a7.52,7.52,0,0,1-.12,1,8,8,0,0,1-.26,1C273.83,27,273.7,27.33,273.48,27.88Z" transform="translate(-13.53)"/><path class="cls-14" d="M279.62,32.44a7.53,7.53,0,0,1,1.21-3.2,10.13,10.13,0,0,1,5.42-4.09,7.48,7.48,0,0,1,3.41-.29c-1,.62-1.89,1.15-2.76,1.72s-1.7,1.14-2.51,1.74-1.59,1.25-2.37,1.93S280.49,31.67,279.62,32.44Z" transform="translate(-13.53)"/><path class="cls-14" d="M288.8,38.75a2.43,2.43,0,0,1-.89-1.48,3.31,3.31,0,0,1,1-3.08,2.42,2.42,0,0,1,1.61-.63c-.09.63-.2,1.08-.3,1.51s-.21.8-.34,1.17-.27.74-.45,1.14S289.11,38.19,288.8,38.75Z" transform="translate(-13.53)"/><path class="cls-14" d="M291.75,43.72a4.87,4.87,0,0,0,2.33-.09,7.13,7.13,0,0,0,1.89-.82,19,19,0,0,0,1.81-1.32A15.26,15.26,0,0,1,299.88,40a6.83,6.83,0,0,1-.92,2.52,6,6,0,0,1-1.95,2,4.64,4.64,0,0,1-2.86.68A2.93,2.93,0,0,1,291.75,43.72Z" transform="translate(-13.53)"/><path class="cls-14" d="M297.84,52.9a3.77,3.77,0,0,1,.51-2,5.13,5.13,0,0,1,3-2.39,3.74,3.74,0,0,1,2,0,10.89,10.89,0,0,1-1.27,1.42c-.42.4-.83.75-1.26,1.09s-.87.66-1.35,1A11.17,11.17,0,0,1,297.84,52.9Z" transform="translate(-13.53)"/><path class="cls-14" d="M299.47,58.92a2.86,2.86,0,0,1,1.12-1.18,3.62,3.62,0,0,1,1.43-.48,3.58,3.58,0,0,1,1.5.14,2.84,2.84,0,0,1,1.36.9,5.71,5.71,0,0,1-1.38.67,6.13,6.13,0,0,1-1.25.28,6.32,6.32,0,0,1-1.28,0A5.81,5.81,0,0,1,299.47,58.92Z" transform="translate(-13.53)"/><path class="cls-14" d="M197.34,54a3.12,3.12,0,0,1-1.84.54,7.85,7.85,0,0,1-1.89-.28l-1.67-.47a11.57,11.57,0,0,0-1.54-.28,12.28,12.28,0,0,0-3.17.08,16.27,16.27,0,0,0-3.33.9,6.1,6.1,0,0,1,2.88-2.41,7.69,7.69,0,0,1,3.84-.56,8,8,0,0,1,1.92.47,14.53,14.53,0,0,1,1.64.8A7.32,7.32,0,0,0,197.34,54Z" transform="translate(-13.53)"/><path class="cls-14" d="M193.51,61.6a9.51,9.51,0,0,1-1.74.62,14.26,14.26,0,0,1-1.58.31,13.65,13.65,0,0,1-1.6.13,9.3,9.3,0,0,1-1.84-.13,3.64,3.64,0,0,1,1.39-1.38,4.87,4.87,0,0,1,1.78-.61,4.92,4.92,0,0,1,1.88.1A3.67,3.67,0,0,1,193.51,61.6Z" transform="translate(-13.53)"/><path class="cls-14" d="M193.1,120.09l-1.73,1.18c-.52.36-1,.7-1.49,1.06s-1,.72-1.44,1.11l-1.63,1.31a3.65,3.65,0,0,1,.39-2.27,5.1,5.1,0,0,1,3.62-2.67A3.67,3.67,0,0,1,193.1,120.09Z" transform="translate(-13.53)"/><path class="cls-14" d="M195.59,129.31c-.64.22-1.12.36-1.58.5l-1.3.37-1.31.32c-.47.1-1,.22-1.63.34a2.62,2.62,0,0,1,.81-1.69,3.66,3.66,0,0,1,3.47-.91A2.63,2.63,0,0,1,195.59,129.31Z" transform="translate(-13.53)"/><path class="cls-14" d="M191.41,115c-.85-.61-1.54-1.3-2.23-1.89a12.33,12.33,0,0,0-2.05-1.52,6,6,0,0,0-2.23-.72,4.38,4.38,0,0,0-2.59.43,3.12,3.12,0,0,1,2.48-2,4.87,4.87,0,0,1,3.33.55,6.39,6.39,0,0,1,2.27,2.27A7.63,7.63,0,0,1,191.41,115Z" transform="translate(-13.53)"/><path class="cls-14" d="M197.38,134.68a29.81,29.81,0,0,1-.36,3.16c-.16,1-.33,2-.51,3s-.37,2-.58,3a29,29,0,0,1-.79,3.08,9.16,9.16,0,0,1-.78-3.18,12.92,12.92,0,0,1,1.16-6.33A9.23,9.23,0,0,1,197.38,134.68Z" transform="translate(-13.53)"/><path class="cls-14" d="M296.25,138.19a3,3,0,0,1,2.25-1,4,4,0,0,1,4,3,3,3,0,0,1-.35,2.45,9.17,9.17,0,0,0-1.09-1.81,6.57,6.57,0,0,0-1.22-1.22,6.46,6.46,0,0,0-1.51-.83A9,9,0,0,0,296.25,138.19Z" transform="translate(-13.53)"/><path class="cls-14" d="M299,127.59a7.68,7.68,0,0,1,2,1.17,10.94,10.94,0,0,1,1.56,1.51,10.75,10.75,0,0,1,1.24,1.79,7.59,7.59,0,0,1,.82,2.18,7.11,7.11,0,0,1-2-1.14,11,11,0,0,1-1.58-1.53,11.16,11.16,0,0,1-1.25-1.81A7.19,7.19,0,0,1,299,127.59Z" transform="translate(-13.53)"/><path class="cls-14" d="M300.38,121.28a2.26,2.26,0,0,1,1.15-1.38,3.2,3.2,0,0,1,3.42.28,2.25,2.25,0,0,1,.91,1.55l-2.74-.19-1.2-.12C301.48,121.37,301,121.33,300.38,121.28Z" transform="translate(-13.53)"/><path class="cls-14" d="M301.51,112.81a3.32,3.32,0,0,1,.46-2.53,4.84,4.84,0,0,1,4.57-2.24,3.31,3.31,0,0,1,2.28,1.19,10.62,10.62,0,0,0-2.2.38,11.1,11.1,0,0,0-1.81.7,10.84,10.84,0,0,0-1.66,1A10.43,10.43,0,0,0,301.51,112.81Z" transform="translate(-13.53)"/><path class="cls-14" d="M303.57,102a2.33,2.33,0,0,1,.29-1.11,1.78,1.78,0,0,1,.59-.63,1.74,1.74,0,0,1,.82-.26,2.31,2.31,0,0,1,1.12.22,2.31,2.31,0,0,1-.28,1.11,1.74,1.74,0,0,1-.59.62,1.78,1.78,0,0,1-.82.26A2.33,2.33,0,0,1,303.57,102Z" transform="translate(-13.53)"/><path class="cls-14" d="M246.45,187.51c2.18,6.12,2.46,12.73,2.5,19.17L248.72,226c-.18,12.91-.53,25.81-.79,38.71-.42,12.9-.75,25.8-1.25,38.7l-.79,19.35c-.34,6.45-.6,12.9-1,19.34-.06-6.46,0-12.91,0-19.37l.23-19.36c.18-12.91.53-25.81.79-38.71.42-12.9.75-25.8,1.26-38.7l.78-19.34C248.25,200.25,248.19,193.75,246.45,187.51Z" transform="translate(-13.53)"/><path class="cls-14" d="M240.31,193.68q.57,18.45.51,36.9c0,12.3-.25,24.61-.61,36.9s-.94,24.59-1.73,36.87-1.77,24.55-3.07,36.78l1.51-36.86c.47-12.28.92-24.57,1.29-36.85Z" transform="translate(-13.53)"/><path class="cls-14" d="M251,186.25q5.18.16,10.37.37h.21l0,.22a159.86,159.86,0,0,1,1.73,19.09c.23,6.39.26,12.78.19,19.16-.24,12.75-.41,25.51-.73,38.26l-.52,19.12c-.24,6.37-.62,12.75-1,19.11s-.67,12.75-1.34,19.09a169.07,169.07,0,0,0-1.16,19.07,145.89,145.89,0,0,1,.24-19.14c.44-6.36.58-12.72.8-19.1l.68-19.1.34-19.12c.25-12.75.67-25.49,1-38.23.17-6.37.36-12.73.28-19.09s-.35-12.72-1-19l.25.23Q256.16,186.74,251,186.25Z" transform="translate(-13.53)"/><path class="cls-14" d="M247.94,187.07a6.92,6.92,0,0,1,3,3.89,20.62,20.62,0,0,1,.94,4.93l.76,10c.17,3.32.35,6.64.49,10s.26,6.65.32,10c.31,13.31.07,26.62-.26,39.91q-.74,19.94-1.86,39.85l-1.16,19.91L249,345.36c0-6.65.14-13.3.26-19.95l.61-19.93c.45-13.29,1.06-26.56,1.4-39.84.5-13.28.71-26.55.73-39.83,0-3.32,0-6.64,0-10l-.21-10-.31-10a20.48,20.48,0,0,0-.7-4.88A6.77,6.77,0,0,0,247.94,187.07Z" transform="translate(-13.53)"/></g><g class="cls-43"><path class="cls-14" d="M201.8,144.92a7.91,7.91,0,0,1,.22,1.34,5.41,5.41,0,0,1,0,1,5.19,5.19,0,0,1-.23,1,7.69,7.69,0,0,1-.55,1.25,2.15,2.15,0,0,1-1-1.11A2.71,2.71,0,0,1,200,147a2.74,2.74,0,0,1,.53-1.3A2.16,2.16,0,0,1,201.8,144.92Z" transform="translate(-13.53)"/><path class="cls-14" d="M204.31,160.4a81.11,81.11,0,0,0,9.21,7.2,70.56,70.56,0,0,0,21,9.45,81.55,81.55,0,0,0,11.5,2.11,42.44,42.44,0,0,1-11.84-.59,50.05,50.05,0,0,1-21.6-9.72A42.56,42.56,0,0,1,204.31,160.4Z" transform="translate(-13.53)"/><path class="cls-14" d="M259.74,178.75c3.11-.21,5.79-1.62,8.42-3.12a75.63,75.63,0,0,0,7.58-5c2.45-1.77,4.8-3.71,7.17-5.64s4.7-3.93,7.17-5.81a69.63,69.63,0,0,1-6.12,7,62.38,62.38,0,0,1-7,6.09,44.49,44.49,0,0,1-8.06,4.75,23.78,23.78,0,0,1-4.44,1.58A10.89,10.89,0,0,1,259.74,178.75Z" transform="translate(-13.53)"/><path class="cls-14" d="M300.11,153.81a4,4,0,0,1-.21,2.07,5.41,5.41,0,0,1-2.67,3,3.93,3.93,0,0,1-2,.41,11.72,11.72,0,0,1,1.07-1.65c.36-.47.73-.91,1.11-1.33s.78-.83,1.22-1.23A12,12,0,0,1,300.11,153.81Z" transform="translate(-13.53)"/><path class="cls-14" d="M194.57,154.55a9.86,9.86,0,0,1,1.28.83,9.37,9.37,0,0,1,.93.81,8.91,8.91,0,0,1,.81.93,9.56,9.56,0,0,1,.82,1.29,2.53,2.53,0,0,1-1.68,0,3.37,3.37,0,0,1-2.2-2.21A2.54,2.54,0,0,1,194.57,154.55Z" transform="translate(-13.53)"/><path class="cls-14" d="M204.07,170.1c4.15,1.71,8.25,3.47,12.39,5.1s8.31,3.15,12.55,4.42a110.36,110.36,0,0,0,12.88,3.16,98.88,98.88,0,0,0,13.26,1.45,53,53,0,0,1-13.49.1,73.86,73.86,0,0,1-13.24-2.8,95.26,95.26,0,0,1-12.58-4.91A99.51,99.51,0,0,1,204.07,170.1Z" transform="translate(-13.53)"/><path class="cls-14" d="M265.8,184.4a3.42,3.42,0,0,1,.74-1.3,3.89,3.89,0,0,1,1-.8,3.82,3.82,0,0,1,1.22-.43,3.39,3.39,0,0,1,1.49.07,3.39,3.39,0,0,1-.73,1.3,3.82,3.82,0,0,1-1,.8,3.89,3.89,0,0,1-1.22.42A3.42,3.42,0,0,1,265.8,184.4Z" transform="translate(-13.53)"/><path class="cls-14" d="M189.57,35.1A33.62,33.62,0,0,1,195,26a40,40,0,0,1,17.35-12.23,33.53,33.53,0,0,1,10.43-2,63.06,63.06,0,0,0-9.84,3.48A55.71,55.71,0,0,0,196.16,27,62.74,62.74,0,0,0,189.57,35.1Z" transform="translate(-13.53)"/><path class="cls-14" d="M303.43,32.65a12.8,12.8,0,0,1,3.1,3.33,17,17,0,0,1,2.81,8.63,12.73,12.73,0,0,1-.55,4.52l-1-4.3c-.34-1.39-.74-2.76-1.18-4.1s-.92-2.68-1.46-4Z" transform="translate(-13.53)"/><path class="cls-14" d="M235.48,186.39a7.7,7.7,0,0,1,2.85.26,10.79,10.79,0,0,1,2.59,1.1,10.69,10.69,0,0,1,2.23,1.72,7.63,7.63,0,0,1,1.62,2.36,18.23,18.23,0,0,1-2.56-1.1c-.79-.4-1.55-.82-2.3-1.26s-1.49-.9-2.23-1.39A18.64,18.64,0,0,1,235.48,186.39Z" transform="translate(-13.53)"/><path class="cls-14" d="M126.64,215.92a4.82,4.82,0,0,1,3.42,1.59,12.49,12.49,0,0,1,2.18,3.19c1,2.31,2.11,4.57,3,6.94a69.78,69.78,0,0,1,4.33,14.57,46.94,46.94,0,0,1-.25,15.23L137,272.3a143.42,143.42,0,0,1,.82-15c.2-2.49.43-5,.41-7.42,0-1.23-.06-2.45-.11-3.67s-.22-2.44-.46-3.64a91.65,91.65,0,0,0-3.81-14.34c-.38-1.19-.8-2.37-1.21-3.54l-1.24-3.53a12.47,12.47,0,0,0-1.7-3.22A4.8,4.8,0,0,0,126.64,215.92Z" transform="translate(-13.53)"/><path class="cls-14" d="M359.66,214.06a20.37,20.37,0,0,0-5.64,5.79,19.26,19.26,0,0,0-2.42,7.57c-.89,5.4-1.57,10.82-2.08,16.27s-.9,10.91-1.22,16.38-.52,11-.74,16.47a156.35,156.35,0,0,1-.82-16.51q0-8.27.79-16.53a137.85,137.85,0,0,1,2.55-16.37,27,27,0,0,1,1.11-4.07,15.74,15.74,0,0,1,2-3.75A18.86,18.86,0,0,1,359.66,214.06Z" transform="translate(-13.53)"/><path class="cls-14" d="M141,239.06c.57.9,1.18,1.79,1.72,2.71a32.05,32.05,0,0,1,1.49,2.87,15.82,15.82,0,0,1,1.63,6.32,22.36,22.36,0,0,1-1.26,6.41,21.09,21.09,0,0,0-.6,3,11,11,0,0,0-.1,1.53c0,.51,0,1,0,1.57q.32,12.85-.39,25.71c-.49,8.56-1.31,17.11-2.57,25.6A221.92,221.92,0,0,1,135.78,340c1.45-8.44,2.63-16.9,3.6-25.38s1.66-17,2.12-25.51.72-17.05.83-25.59a20.26,20.26,0,0,1,1-6.52,21.85,21.85,0,0,0,1.53-6.06,15.08,15.08,0,0,0-1.14-6.1A49.35,49.35,0,0,0,141,239.06Z" transform="translate(-13.53)"/><path class="cls-14" d="M341.61,254.67l.68,23.38c.25,7.79.5,15.57.85,23.35s.72,15.56,1.13,23.34l1.3,23.35q-1.8-11.57-2.86-23.24c-.73-7.77-1.23-15.57-1.57-23.37s-.48-15.61-.41-23.41S341.07,262.45,341.61,254.67Z" transform="translate(-13.53)"/><path class="cls-14" d="M350.2,307.7a4.24,4.24,0,0,1,.84,1.48,5.38,5.38,0,0,1,.27,1.5,5.28,5.28,0,0,1-.16,1.51,4.19,4.19,0,0,1-.73,1.53,4.19,4.19,0,0,1-.84-1.48,5.28,5.28,0,0,1-.27-1.5,5.38,5.38,0,0,1,.16-1.51A4.24,4.24,0,0,1,350.2,307.7Z" transform="translate(-13.53)"/><path class="cls-14" d="M149.52,211.84a8.73,8.73,0,0,1,3,.84,12.19,12.19,0,0,1,2.6,1.66,12.06,12.06,0,0,1,2.1,2.26,8.66,8.66,0,0,1,1.36,2.81,23.84,23.84,0,0,1-2.5-1.72c-.77-.59-1.51-1.19-2.25-1.81s-1.46-1.24-2.18-1.89A24.44,24.44,0,0,1,149.52,211.84Z" transform="translate(-13.53)"/><path class="cls-14" d="M177.28,254c2.75,0,4.91-1.62,7-3.17s4.3-3.21,6.49-4.75,4.45-3,6.75-4.39,4.62-2.75,7.06-3.93c-2,1.87-4.05,3.57-6.18,5.21s-4.3,3.21-6.5,4.75-4.44,3-6.76,4.39a17.24,17.24,0,0,1-3.76,1.77A7,7,0,0,1,177.28,254Z" transform="translate(-13.53)"/><path class="cls-14" d="M201.11,267.74a7.15,7.15,0,0,1,.89-2.09,10.57,10.57,0,0,1,1.3-1.7,10.38,10.38,0,0,1,1.61-1.4,7.06,7.06,0,0,1,2-1,7.06,7.06,0,0,1-.89,2.09,10.38,10.38,0,0,1-1.3,1.7,10.56,10.56,0,0,1-1.62,1.4A7.15,7.15,0,0,1,201.11,267.74Z" transform="translate(-13.53)"/><path class="cls-14" d="M279.25,256.38c2.2,1.95,4.24,4,6.33,6,.52.51,1.05,1,1.58,1.46s1.06.94,1.61,1.38,1.11.84,1.66,1.24c.28.19.58.34.88.51a5.64,5.64,0,0,0,.9.45,19.56,19.56,0,0,0,3.95,1.3c1.39.38,2.82.71,4.22,1.15a47.14,47.14,0,0,1,8.16,3.31c-2.89-.57-5.7-1.25-8.53-1.79-1.42-.26-2.83-.54-4.28-.82a19.91,19.91,0,0,1-4.36-1.32,21.6,21.6,0,0,1-6.92-5.78A59,59,0,0,1,279.25,256.38Z" transform="translate(-13.53)"/><path class="cls-14" d="M294,301.3a26.82,26.82,0,0,1,3.79-2.6q2-1.15,4-2.09c1.37-.64,2.77-1.19,4.21-1.69a26.53,26.53,0,0,1,4.44-1.18,26.53,26.53,0,0,1-3.79,2.6c-1.31.76-2.65,1.47-4,2.09s-2.78,1.19-4.21,1.69A26.83,26.83,0,0,1,294,301.3Z" transform="translate(-13.53)"/><path class="cls-14" d="M319.5,244.49a2.48,2.48,0,0,1,.72-1,2.08,2.08,0,0,1,.84-.41,2,2,0,0,1,.93,0,2.46,2.46,0,0,1,1.06.57,2.46,2.46,0,0,1-.72,1,2,2,0,0,1-.84.4,2.08,2.08,0,0,1-.94,0A2.48,2.48,0,0,1,319.5,244.49Z" transform="translate(-13.53)"/><path class="cls-14" d="M151.84,318.17a19.85,19.85,0,0,1,4.5-.23,18.29,18.29,0,0,1,2.26.25,8.82,8.82,0,0,1,1.18.28,3.82,3.82,0,0,1,.68.3,1.53,1.53,0,0,1,.55.51,1.17,1.17,0,0,1,.13,1,1.28,1.28,0,0,1-.22.4,1.4,1.4,0,0,1-.22.21,2.12,2.12,0,0,1-1,.36,4.38,4.38,0,0,1-.71,0,3.31,3.31,0,0,1-1.52-.35,1.56,1.56,0,0,1-.53-.47,1.26,1.26,0,0,1-.19-1,1.71,1.71,0,0,1,.59-.91,4.26,4.26,0,0,1,1.12-.68,13.4,13.4,0,0,1,4.43-1.09c-1.23.9-2.53,1.64-3.65,2.44a5.2,5.2,0,0,0-.68.59c-.07.07-.09.19,0,0a.62.62,0,0,0-.08-.44c-.06-.1-.12-.13-.11-.13a2.6,2.6,0,0,0,.63,0,2.7,2.7,0,0,0,.39,0c.1,0,.26-.1.08,0a.69.69,0,0,0-.12.11.79.79,0,0,0-.15.28.85.85,0,0,0,.08.69c.16.21.13.14.13.15a2.7,2.7,0,0,0-.32-.15c-.28-.11-.62-.2-.95-.3-.67-.21-1.38-.35-2.08-.55A36,36,0,0,1,151.84,318.17Z" transform="translate(-13.53)"/><path class="cls-14" d="M180.63,332.21c2.33.6,4.64,1.3,6.93,2a28.44,28.44,0,0,0,3.35.93h.27s.05,0,.11-.07l.09-.07.15-.15.34-.33a7.8,7.8,0,0,1,1.62-1.14,31.08,31.08,0,0,1,7-2.31c2.29-.6,4.58-1.24,6.81-2a96.29,96.29,0,0,0,13.08-5.57,117.53,117.53,0,0,0,12.27-7.39,62,62,0,0,1-11.52,8.76,71.61,71.61,0,0,1-6.44,3.39c-2.2,1-4.47,1.89-6.76,2.7s-4.64,1.43-7,2c-1.2.25-2.35.52-3.49.78a21.11,21.11,0,0,0-3.25,1.08,6.32,6.32,0,0,0-1.38.84l-.33.28-.18.16-.27.19a1.65,1.65,0,0,1-.71.25,4.16,4.16,0,0,1-.62,0,26.35,26.35,0,0,1-3.48-1.3C185,334.16,182.82,333.22,180.63,332.21Z" transform="translate(-13.53)"/><path class="cls-14" d="M207.09,306.44a72.32,72.32,0,0,1,7.14,1.7l3.49,1a22.07,22.07,0,0,0,3.39.73,6.74,6.74,0,0,0,3.18-.26c1.09-.32,2.19-.81,3.34-1.23a41,41,0,0,1,7.07-2.07c-2.14,1.24-4.28,2.35-6.43,3.49a31.52,31.52,0,0,1-3.38,1.6,8.43,8.43,0,0,1-4,.45,29.93,29.93,0,0,1-7.15-2.23A63.77,63.77,0,0,1,207.09,306.44Z" transform="translate(-13.53)"/><path class="cls-14" d="M260.61,325a59.64,59.64,0,0,0,7.2,7.14,53.08,53.08,0,0,0,17.47,9.58,60,60,0,0,0,9.9,2.23,31.82,31.82,0,0,1-10.31-.73,38.06,38.06,0,0,1-18.1-9.93A31.91,31.91,0,0,1,260.61,325Z" transform="translate(-13.53)"/><path class="cls-14" d="M315.36,329.08c1.63-1.06,3.28-2,4.92-2.91l4.91-2.76,4.93-2.74c1.65-.91,3.31-1.83,5.07-2.66a27,27,0,0,1-4.21,4,38.39,38.39,0,0,1-10,5.6A27.23,27.23,0,0,1,315.36,329.08Z" transform="translate(-13.53)"/><path class="cls-14" d="M337.69,307a6.54,6.54,0,0,1-1.45,1.61,9.49,9.49,0,0,1-1.7,1.1,9.32,9.32,0,0,1-1.9.71,6.47,6.47,0,0,1-2.15.2,6.47,6.47,0,0,1,1.45-1.61,9.32,9.32,0,0,1,1.7-1.1,9.49,9.49,0,0,1,1.9-.71A6.54,6.54,0,0,1,337.69,307Z" transform="translate(-13.53)"/><path class="cls-14" d="M142.48,296.62a16.2,16.2,0,0,1,3,.56c1,.26,1.88.57,2.79.88s1.8.64,2.72,1a16.22,16.22,0,0,1,2.78,1.29,10.45,10.45,0,0,1-3.11.24,11.69,11.69,0,0,1-3-.64,13.64,13.64,0,0,1-2.77-1.33A10.68,10.68,0,0,1,142.48,296.62Z" transform="translate(-13.53)"/><path class="cls-14" d="M144.34,327.28a5.18,5.18,0,0,1,1.73.8,7.29,7.29,0,0,1,2.3,2.65,5.34,5.34,0,0,1,.56,1.85,5.12,5.12,0,0,1-1.73-.8,7.07,7.07,0,0,1-1.31-1.19,7.3,7.3,0,0,1-1-1.47A5.4,5.4,0,0,1,144.34,327.28Z" transform="translate(-13.53)"/><path class="cls-14" d="M271.05,195c2.86-.2,5.7-.2,8.54-.13s5.67.23,8.5.42,5.65.49,8.46.86,5.62.79,8.42,1.42c-2.86.2-5.7.2-8.54.13s-5.67-.23-8.5-.43-5.65-.49-8.46-.87S273.85,195.64,271.05,195Z" transform="translate(-13.53)"/><path class="cls-14" d="M172.2,200.87a50.78,50.78,0,0,1,7-1.26c2.35-.28,4.71-.53,7.07-.73,4.72-.41,9.44-.68,14.17-.89s9.45-.31,14.19-.3,9.47,0,14.2.42c-4.72.45-9.43.85-14.15,1.14s-9.44.53-14.16.74-9.44.35-14.16.44l-7.08.15C176.92,200.66,174.55,200.64,172.2,200.87Z" transform="translate(-13.53)"/><path class="cls-14" d="M279.7,203.06a55.57,55.57,0,0,1,8-2.08,78.5,78.5,0,0,1,16.41-1.37,55.17,55.17,0,0,1,8.22.73c-2.74.36-5.46.59-8.17.83l-8.13.69-8.13.67C285.19,202.74,282.47,203,279.7,203.06Z" transform="translate(-13.53)"/><path class="cls-14" d="M308.93,217.36a5,5,0,0,1,.83-.64,1.53,1.53,0,0,1,.62-.22,1.48,1.48,0,0,1,.65.1,4.9,4.9,0,0,1,.94.48,1.55,1.55,0,0,1-3,.28Z" transform="translate(-13.53)"/><path class="cls-14" d="M217.72,209.51a5.66,5.66,0,0,1,2,.38,10.07,10.07,0,0,1,1.69.81,12.9,12.9,0,0,1,1.49,1c.49.38.88.78,1.5,1.21a2.93,2.93,0,0,1-2.14.22,6.23,6.23,0,0,1-1.86-.75,7.31,7.31,0,0,1-1.52-1.21A6.29,6.29,0,0,1,217.72,209.51Z" transform="translate(-13.53)"/><path class="cls-14" d="M214.22,190.58a12.68,12.68,0,0,1,3.19-.55,18.57,18.57,0,0,1,3.16.11,17.5,17.5,0,0,1,3.1.66,12.41,12.41,0,0,1,3,1.33,15.51,15.51,0,0,1-3.21.22,30.71,30.71,0,0,1-3.09-.23,29.07,29.07,0,0,1-3.06-.54A15.53,15.53,0,0,1,214.22,190.58Z" transform="translate(-13.53)"/><path class="cls-14" d="M105.1,255.6a17.18,17.18,0,0,1,.94,1.47c.31.47.57,1,.88,1.41a29.93,29.93,0,0,0,1.81,2.6,19.4,19.4,0,0,0,2.13,2.27,27.48,27.48,0,0,0,2.63,2.05,6.55,6.55,0,0,1-3.51-.75,8.7,8.7,0,0,1-2.81-2.33,10,10,0,0,1-1.67-3.19,11.22,11.22,0,0,1-.37-1.74A10.29,10.29,0,0,1,105.1,255.6Z" transform="translate(-13.53)"/><path class="cls-14" d="M117.7,244.79a3.52,3.52,0,0,1,2.6-.31,7.53,7.53,0,0,1,2.36,1,8.44,8.44,0,0,1,1.92,1.59,5.69,5.69,0,0,1,1.28,2.21,18,18,0,0,1-2.25-1c-.69-.35-1.35-.73-2-1.12s-1.26-.8-1.88-1.2A12,12,0,0,0,117.7,244.79Z" transform="translate(-13.53)"/><path class="cls-14" d="M102.75,318.1a4.63,4.63,0,0,0,3,0,19.68,19.68,0,0,0,2.83-1.2l5.73-2.69,5.73-2.66c1.92-.89,3.84-1.79,5.87-2.56a35.68,35.68,0,0,1-5.11,3.93,47.16,47.16,0,0,1-5.64,3.1,52.55,52.55,0,0,1-6,2.32,13.43,13.43,0,0,1-3.24.72A4.23,4.23,0,0,1,102.75,318.1Z" transform="translate(-13.53)"/><path class="cls-14" d="M124.08,322.24a7,7,0,0,1,2.69-.45,6.16,6.16,0,0,1,1.4.19,4.2,4.2,0,0,1,.75.27,2.44,2.44,0,0,1,.43.27,1.53,1.53,0,0,1,.53.7,1.26,1.26,0,0,1,.06.48,1.14,1.14,0,0,1-.24.6,1.11,1.11,0,0,1-.45.35,1.09,1.09,0,0,1-.4.1,1.39,1.39,0,0,1-1-.31,1.82,1.82,0,0,1-.64-1.11,3,3,0,0,1,.23-1.67,5,5,0,0,1,1.77-2.16c0,.95-.22,1.79-.24,2.54a2.14,2.14,0,0,0,.09.86c0,.07.08.07,0,0a.53.53,0,0,0-.38-.1.92.92,0,0,0-.25.06.89.89,0,0,0-.33.26.86.86,0,0,0-.18.46.7.7,0,0,0,0,.32c.09.24.15.22.12.21L128,324a3.7,3.7,0,0,0-.43-.22c-.33-.14-.7-.29-1.09-.44A16.71,16.71,0,0,1,124.08,322.24Z" transform="translate(-13.53)"/><path class="cls-14" d="M91.72,308.91a2.33,2.33,0,0,1,1.62-1,5.2,5.2,0,0,1,1.71,0,7.39,7.39,0,0,1,1.51.37c.49.17.9.39,1.55.56a2.32,2.32,0,0,1-1.62,1,5.13,5.13,0,0,1-1.71,0,7.57,7.57,0,0,1-1.51-.38C92.78,309.3,92.37,309.08,91.72,308.91Z" transform="translate(-13.53)"/><path class="cls-14" d="M378.21,253.07a3.49,3.49,0,0,1,.64,1.73,6.21,6.21,0,0,1-.15,1.89,15.36,15.36,0,0,1-1.39,3.41A31.58,31.58,0,0,1,367.89,271a25.93,25.93,0,0,1-6.33,3.42c1.85-1.54,3.64-3,5.34-4.63a68.17,68.17,0,0,0,4.81-5,65.93,65.93,0,0,0,4.26-5.49,21.83,21.83,0,0,0,1.8-2.92A4.63,4.63,0,0,0,378.21,253.07Z" transform="translate(-13.53)"/><path class="cls-14" d="M355.74,287.48a14.63,14.63,0,0,1,1.68.68c.49.23.94.46,1.38.71s.88.5,1.33.8a14.13,14.13,0,0,1,1.46,1.07,3.26,3.26,0,0,1-1.92.43,4.48,4.48,0,0,1-3.28-1.83A3.28,3.28,0,0,1,355.74,287.48Z" transform="translate(-13.53)"/><path class="cls-14" d="M367.39,313.87l5-1.23c1.64-.41,3.25-.87,4.85-1.37s3.18-1,4.77-1.63l4.83-1.83a17.73,17.73,0,0,1-4.16,3.24,23.64,23.64,0,0,1-10,3.12A17.84,17.84,0,0,1,367.39,313.87Z" transform="translate(-13.53)"/><path class="cls-14" d="M364.63,338c.67.12,1.16.23,1.65.33l1.34.3,1.33.34c.47.13,1,.26,1.61.46a2.65,2.65,0,0,1-1.54,1.11,3.71,3.71,0,0,1-3.53-.86A2.67,2.67,0,0,1,364.63,338Z" transform="translate(-13.53)"/><path class="cls-14" d="M379.35,342.8a2.2,2.2,0,0,1,.42-.76.51.51,0,0,1,.39-.2.5.5,0,0,1,.36.23,1,1,0,0,1-.08,1.57.5.5,0,0,1-.39.19.51.51,0,0,1-.36-.24A2.2,2.2,0,0,1,379.35,342.8Z" transform="translate(-13.53)"/><path class="cls-14" d="M181,90.39A5.83,5.83,0,0,1,179.66,88a8,8,0,0,1,.29-5.36,5.79,5.79,0,0,1,1.6-2.23c0,.95,0,1.78-.07,2.6l-.14,2.39-.12,2.39C181.16,88.62,181.13,89.45,181,90.39Z" transform="translate(-13.53)"/><path class="cls-14" d="M179.71,68.34a2.28,2.28,0,0,1-.06-1.12,1.66,1.66,0,0,1,.37-.74,1.62,1.62,0,0,1,.69-.46,2.26,2.26,0,0,1,1.12-.08,2.26,2.26,0,0,1,.06,1.12,1.62,1.62,0,0,1-.37.74,1.65,1.65,0,0,1-.69.46A2.28,2.28,0,0,1,179.71,68.34Z" transform="translate(-13.53)"/><path class="cls-14" d="M307.22,61.08a3,3,0,0,1,1.6.64,3.92,3.92,0,0,1,1,1.25,3.87,3.87,0,0,1,.46,1.56,3,3,0,0,1-.36,1.69A7,7,0,0,1,308.85,65a8.17,8.17,0,0,1-.74-1.14,8.48,8.48,0,0,1-.54-1.25A7.2,7.2,0,0,1,307.22,61.08Z" transform="translate(-13.53)"/><path class="cls-14" d="M310,85.26a6.47,6.47,0,0,1,.58.87,1.55,1.55,0,0,1,.19.61,1.5,1.5,0,0,1-.11.63,6.31,6.31,0,0,1-.46.94,1.5,1.5,0,0,1-1-.52,1.56,1.56,0,0,1-.37-.92,1.58,1.58,0,0,1,.25-1A1.5,1.5,0,0,1,310,85.26Z" transform="translate(-13.53)"/><path class="cls-14" d="M278.75,13a2.57,2.57,0,0,1,1.44-.71,3.29,3.29,0,0,1,1.5.12,3.26,3.26,0,0,1,1.29.78,2.55,2.55,0,0,1,.75,1.43,6.89,6.89,0,0,1-1.49,0,6.55,6.55,0,0,1-1.17-.26,6.81,6.81,0,0,1-1.1-.47A7,7,0,0,1,278.75,13Z" transform="translate(-13.53)"/><path class="cls-14" d="M240.33,8.35A2.87,2.87,0,0,1,241,6.72a3.78,3.78,0,0,1,1.31-1,3.74,3.74,0,0,1,1.63-.38,2.85,2.85,0,0,1,1.68.51,8.86,8.86,0,0,1-1.27,1,10,10,0,0,1-1.17.66,10.53,10.53,0,0,1-1.25.51A9.09,9.09,0,0,1,240.33,8.35Z" transform="translate(-13.53)"/><path class="cls-14" d="M309,135.59a2.91,2.91,0,0,1,.71,1.45,3.66,3.66,0,0,1,0,1.49,3.61,3.61,0,0,1-.62,1.35,2.88,2.88,0,0,1-1.28,1,5.36,5.36,0,0,1-.2-1.52,5.79,5.79,0,0,1,.15-1.27,6,6,0,0,1,.42-1.21A5.45,5.45,0,0,1,309,135.59Z" transform="translate(-13.53)"/></g><path class="cls-44" d="M279.92,177.44c-15.11,7-34.32,6.65-47.05-4,11,3.07,22.92,3.22,33.54-.87s19.7-12.67,23.17-23.51c-5.6,5.58-11.16,10.46-18.77,13a32,32,0,0,1-12,1.42c-3.76-.2-8.86-2.8-12.32-2.47a25.47,25.47,0,0,0,10.41-3.34,62.32,62.32,0,0,1-15.59-1.32c-2.38-.51-5-1.42-6-3.68,9.84-.67,19.81-1.58,29.06-5a205.65,205.65,0,0,1-29.11-1.3,21.89,21.89,0,0,1-7.13-1.7,8,8,0,0,1-4.56-5.43c14.94.55,30.34,1,44.34-4.22l-37.18-1.47c-2.68-.11-5.55-.28-7.69-1.89s-2.95-5.25-.85-6.93c13.44.53,27.33,1,39.86-3.91q-15.5.53-31-.13c-2-.09-4.34-.4-5.28-2.16a46.26,46.26,0,0,1,11.73-16.93,34,34,0,0,1,6.09-4.45c1.52-.86,4.71-.58,5.79-2.06.69-.94.47-3.9-1.31-3.82a15.19,15.19,0,0,1,8.13,2.51c6.82,4,12.51,10,17.3,16.07,2.22,2.83,4.34,4.9,8.15,5a87.6,87.6,0,0,0,11.71-.23c2.36-.26,5-.88,6.24-2.87-5.41,1.11-11,.46-16.48-.29a24,24,0,0,1-7.33-1.83c-3-1.44-5.2-4-7.36-6.47-3.81-4.38-7-9.19-11.08-13.28a17.73,17.73,0,0,0-8.85-5.15c1.12-2.24,4.47-.59,6,.2-.53-2.93-3.74-4.84-6.71-4.65s-5.62,2-7.57,4.28a71.88,71.88,0,0,0-5,7.37,43.36,43.36,0,0,1-16.54,14.44c-5.15,2.57-16.75,7.26-21.91,3a11.19,11.19,0,0,1-2.93-4.58,74,74,0,0,1-5.6-27.31,16.44,16.44,0,0,1,.9-6.5c1.31-3.19,4.3-5.38,7.39-6.9a54.76,54.76,0,0,1,14.6-4.28c14.77-2.65,29.72-2.13,44.52-4.46q-12.87-.71-25.77-.28-6.44.22-12.87.72c-1.35.11-9.92.77-10.32,1.92,2-5.6,8.51-9.76,13.43-12.51,13.56-7.6,29.57-9.54,45.11-9.51A71.53,71.53,0,0,0,204,48.36c1.41-5.15,6-8.73,10.75-11.26,16.37-8.8,40.75-12.89,58.31-5.43a45.07,45.07,0,0,1,16,12.21c11.74,13.46,14.48,27.88,14.35,45.42-.07,9.75-.45,19.56-2.17,29.18-.87,4.87-1.86,10.2-3.91,14.74-1.95,4.32-2.43,7.68-3.26,12.43-1.44,8.23-7.92,14.56-14.34,19.9-6.81,5.66-14.2,11-22.78,13.2,9.7.55,19.43-3.31,26.67-9.79A48.5,48.5,0,0,0,298,144.11a10.78,10.78,0,0,0,2.75,6.17c3.06-1,3.45-5.32,2.27-8.32s-3.36-5.73-3.48-9a7.28,7.28,0,0,0,2.58,3c1.18.63,3,.36,3.46-.88a3.08,3.08,0,0,0-.1-2.09,9.73,9.73,0,0,0-2.43-3.91c-.91-.89-2.08-1.77-2.13-3-.08-2.12,2.74-2.84,4.85-3.07s4.83-1.78,3.95-3.71c-.63-1.37-2.53-1.39-4-1.31s-3.48-.37-3.63-1.87c1.57-1,3.42-1.58,5.06-2.5s3.15-2.45,3.24-4.33c.13-2.78-3.73-4.75-5.91-3-.1-1.8,1.61-3.15,3.24-3.91s3.5-1.41,4.39-3c.55-1,.36-2.54-.73-2.75a2.34,2.34,0,0,0-1.11.15l-5.11,1.56c2.22-.68-.23-19.42-.43-21.52-.51-5.25-1-10.56-1.81-15.78,4.65,1,6.51-5,1.64-5.89a9.82,9.82,0,0,0-5,.93c-.7-1.51.53-3.26,2-4.08s3.16-1.13,4.51-2.1,2.16-3.07,1-4.28-2.79-.71-4.14-.11A19.23,19.23,0,0,0,298,48.69c-.51.45-1.13,1-1.79.79-.84-.22-1-1.45-.49-2.16a5.39,5.39,0,0,1,2.12-1.45,11.48,11.48,0,0,0,5.44-6.12c.42-1.12.46-2.72-.66-3.15a2.29,2.29,0,0,0-2,.46c-3,2-5.28,5.73-8.87,5.7a2.11,2.11,0,0,1-1.14-.28,1.89,1.89,0,0,1-.51-2.25,6.29,6.29,0,0,1,1.52-2,29.24,29.24,0,0,0,3.8-4.77c.81-1.27,1.41-3.21.17-4.07A2.44,2.44,0,0,0,294,29.1c-3.55.35-5.73,3.88-8.37,6.28a2.1,2.1,0,0,1-1.64.73c-1.21-.2-1.22-2-.63-3.07,1.67-3.06,5.17-4.51,8.07-6.45a1.76,1.76,0,0,0,.75-.78,1.43,1.43,0,0,0-.13-1.08c-1.12-2.37-4.56-2.42-6.94-1.32a12.38,12.38,0,0,0-5.3,4.68,8.6,8.6,0,0,1-1.51,2.11,2,2,0,0,1-2.39.32c-.82-.59-.77-1.8-.61-2.79a45.42,45.42,0,0,1,2.43-9c-3.26-.2-5.34,3.47-6,6.67A4.86,4.86,0,0,1,270.63,28c-.69.67-2.08.65-2.4-.25a2.23,2.23,0,0,1,.21-1.51c1.66-4.35,2.33-9.39.27-13.57-.44-.89-1.26-1.84-2.22-1.6s-1.25,1.72-1.24,2.84a33,33,0,0,1-1.09,8.69,5.41,5.41,0,0,1-1.52,2.9,2.09,2.09,0,0,1-3-.14,2.5,2.5,0,0,1-.34-1.43c0-1.83.75-3.57,1.17-5.35s.47-3.85-.72-5.24c-2.88,2.33-3.14,6.57-3.06,10.27a3.1,3.1,0,0,1-.2,1.44,2.06,2.06,0,0,1-2.83.6,4.72,4.72,0,0,1-1.83-2.6c-1.25-3.48-1.18-7.39-2.84-10.69-.4-.8-1.29-1.65-2-1.19a1.67,1.67,0,0,0-.61,1.19,15,15,0,0,0,.27,6.54c.43,1.59,1.13,3.19.91,4.82s-1.89,3.22-3.41,2.58c-1.15-.49-1.54-1.9-1.78-3.13l-1.81-9.2a2.72,2.72,0,0,0-3,1.77,8,8,0,0,0-.3,3.74c.15,1.91.25,4-.75,5.61s-3.54,2.46-4.87,1.08c-.9-.94-.88-2.4-1-3.7a14,14,0,0,0-2.73-7.25,2.52,2.52,0,0,0-2.05-1.28,2,2,0,0,0-1.21.7c-3.77,4.22,5.22,13.28-2.15,15.91-2.87,1-6.6-1.64-5.91-4.61-1.59-.43-3.19,1-3.55,2.61a9.25,9.25,0,0,0,.65,4.82c-4.71,1.33-3-5.17-1.52-7.78A21.07,21.07,0,0,1,218.83,19c10.76-7.36,23.89-10.82,36.92-11.18,14.51-.41,29.85,1.93,42.73,8.87A59.45,59.45,0,0,0,285,7.92a72,72,0,0,0-12.59-4.87A80.5,80.5,0,0,0,245.54.16C222,1.61,198.06,12.7,186.17,33c-9.94,17-10.81,37.3-9.31,56.45a322.59,322.59,0,0,0,9.48,55.44c1.76,6.81,3.55,14.05,9,18.93,6.38,5.74,14.4,9.39,22.14,12.87a1.21,1.21,0,0,1,.63.48,1.25,1.25,0,0,1,0,.79c-.24,1.3.49,11.94-.68,12.43-5.12,2.13-10.63,3.13-16.08,4.12-9.14,1.66-18.12,3.64-27.18,5.77l23.06,1.37c-3.3,5.07-9.73,6.81-15.2,9.41-1.45.69-3.09,1.86-2.88,3.46.38,2.89,5.78,2.3,6.57,5.11a3.54,3.54,0,0,1-.59,2.7c-2.79,4.67-9,5.92-14.46,5.47s-10.81-2.11-16.2-1.39-10.94,5.06-10.35,10.46C141,230.27,138.76,224,132,220.31c-.88-.48-2.17-.81-2.74,0a2.29,2.29,0,0,0,.07,2c3.28,9.32,2.56,20.72,1.87,30.44a98.49,98.49,0,0,1-2.46,16.56c-.72,2.91-5.94,12.24-5.32,14.59a22,22,0,0,0-6-10.22c-5.86,10.22-5.65,23.57-13.4,32.46-3.33,3.81-7.8,6.39-11.95,9.29a83.91,83.91,0,0,0-19.74,19.35c9,3,21.4.68,30.95,1.39,6.47.48,13.09,1.46,19.58,1.4,39.13-.35,77.87,1.58,117,2.47q62,1.4,123.91-1.28l7.43-.34c-7.09.34-10.07-23.7-10.82-28.61a439.26,439.26,0,0,1-4.08-93.66c-8.93,7.67-13.69,20.89-14.32,32.37-.44,8-.87,16.08-1.34,24.13q-.34,5.82-.7,11.64c-.29,4.75-1.43,9.52-4.3,13.36-2,2.74-4.13,5.53-7,7.44s-6.56,2.83-9.7,1.49c4.09-6.67,7.59-13.78,9.43-21.38s1.93-15.75-.68-23.13c-1.27,6-2.8,12.13-5.95,17.43s-8.17,9.78-14.23,11c-5.69,1.1-6.59-5.39-6.32-9.65.72-11.47,0-18.24-6.36-28.13-1.56-2.43-3.64-4.88-6.5-5.33-2.26-.35-4.49.63-6.77.87-5.85.62-11.25-3.94-13.56-9.34-3.43-8-1.56-19.84-2.34-28.38-.28-3.11-.06-9.8-2.42-12.28a5,5,0,0,0-8.18,1.49c-1,2.07-1,4.49-.88,6.79,1.46,42.82,2.14,86.19-1.22,128.71-3.8.22-7.68,0-11.5,0a1,1,0,0,1-1.2-1.31c.12-1.72.36-3.48.37-5.21.12-43.42,1.21-87,1.55-130.55a12.57,12.57,0,0,1,.87-5.48c2.33-4.75,8.44-3.29,12.57-3.8,9.22-1.14,18.56-4.46,24.76-11.69Z" transform="translate(-13.53)"/><path class="cls-45" d="M308.79,69.24c-.23-3.14-1.41-5.37-4.76-7.42S296.94,59,293.3,58.06c-6.33-1.6-12.88-2.11-19.37-2.6a289.05,289.05,0,0,0-35.23,0c-16,.86-31.79,2.19-46.69,8.8-7.53,3.35-7,11.51-6.34,18.88a99.89,99.89,0,0,0,6.32,27.6c3.28,8.51,17.29,6.79,23.92,3a13.66,13.66,0,0,0,2.52-2c6.62-6.2,12.94-13.51,21.1-17.67,8.45-4.31,14.85-2.13,22,3.32a121.93,121.93,0,0,1,12.18,11.32c3.26,3.28,7.75,4.29,12.13,4.6,6.63.48,15.57,3.34,17.33-5.21,2.42-11.76,4.86-23.57,5.63-35.58A23.88,23.88,0,0,0,308.79,69.24Z" transform="translate(-13.53)"/></g></g></g></svg>